{"glyphs":{"0":{"ha":874,"x_min":90,"x_max":783,"o":"m 697 122 q 653 55 697 122 q 438 -12 610 -12 q 178 122 265 -12 q 90 488 90 256 q 178 851 90 718 q 438 985 265 985 q 697 851 610 985 q 783 488 783 718 q 697 122 783 256 m 233 488 q 283 217 233 317 q 438 118 332 118 q 592 217 543 118 q 640 488 640 317 q 591 755 640 656 q 438 854 542 854 q 283 755 332 854 q 233 488 233 656 z "},"1":{"ha":625,"x_min":79,"x_max":483,"o":"m 343 0 l 343 801 l 178 656 l 79 656 l 79 810 l 156 810 l 342 972 l 483 972 l 483 0 l 343 0 z "},"2":{"ha":806,"x_min":83,"x_max":724,"o":"m 101 0 l 101 131 l 439 463 q 538 581 511 535 q 565 683 565 628 q 519 804 565 753 q 390 856 472 856 q 259 805 307 856 q 203 678 211 754 l 83 736 q 179 911 101 838 q 390 985 257 985 q 621 896 532 985 q 710 683 710 807 q 673 533 710 601 q 540 374 636 465 l 288 131 l 724 131 l 724 0 l 101 0 z "},"3":{"ha":838,"x_min":90,"x_max":749,"o":"m 411 117 q 555 161 506 117 q 604 279 604 206 q 553 399 604 353 q 414 444 503 444 l 339 444 l 339 568 l 414 568 q 531 608 488 568 q 574 715 574 649 q 530 813 574 769 q 408 856 486 856 q 277 807 325 856 q 221 685 229 758 l 103 739 q 198 914 119 843 q 410 985 276 985 q 633 908 547 985 q 718 719 718 831 q 685 592 718 643 q 604 517 651 542 q 749 281 749 444 q 660 71 749 154 q 414 -12 572 -12 q 192 62 278 -12 q 90 233 106 136 l 208 289 q 271 166 218 215 q 411 117 324 117 z "},"4":{"ha":817,"x_min":56,"x_max":761,"o":"m 499 0 l 499 185 l 56 185 l 56 311 l 343 851 l 343 972 l 486 972 l 486 825 l 204 311 l 499 311 l 499 553 l 638 553 l 638 311 l 761 311 l 761 185 l 638 185 l 638 0 l 499 0 z "},"5":{"ha":822,"x_min":83,"x_max":739,"o":"m 403 117 q 547 176 496 117 q 597 317 597 236 q 543 449 597 392 q 401 507 489 507 q 233 411 286 507 l 96 411 l 133 972 l 693 972 l 693 842 l 258 842 l 238 563 q 422 633 308 633 q 653 535 567 633 q 739 317 739 438 q 649 86 739 185 q 403 -12 560 -12 q 184 61 268 -12 q 83 231 100 135 l 201 286 q 265 165 213 214 q 403 117 318 117 z "},"6":{"ha":864,"x_min":90,"x_max":774,"o":"m 440 -12 q 176 119 261 -12 q 90 471 90 251 q 111 667 90 576 q 174 829 132 757 q 288 943 217 901 q 456 985 360 985 q 667 913 589 985 q 765 743 744 842 l 646 683 q 586 807 636 757 q 454 857 536 857 q 349 825 394 857 q 278 742 303 793 q 241 633 253 690 q 229 517 229 576 q 456 619 311 619 q 688 525 601 619 q 774 308 774 431 q 681 82 774 176 q 440 -12 589 -12 m 250 310 q 301 172 250 229 q 442 115 353 115 q 581 172 529 115 q 632 310 632 229 q 581 439 632 383 q 442 494 529 494 q 303 438 356 494 q 250 310 250 382 z "},"7":{"ha":769,"x_min":63,"x_max":707,"o":"m 233 0 l 233 175 l 556 836 l 203 836 l 203 724 l 63 724 l 63 972 l 707 972 l 707 831 l 379 151 l 379 0 l 233 0 z "},"8":{"ha":836,"x_min":83,"x_max":753,"o":"m 283 161 q 310 138 283 161 q 418 115 338 115 q 553 161 499 115 q 608 282 608 207 q 555 401 608 354 q 418 449 501 449 q 281 401 335 449 q 228 282 228 354 q 283 161 228 207 m 83 278 q 125 422 83 357 q 232 518 167 486 q 155 597 188 544 q 122 722 122 649 q 208 912 122 839 q 418 985 293 985 q 628 912 543 985 q 714 722 714 839 q 681 597 714 649 q 604 518 649 544 q 711 422 669 486 q 753 278 753 357 q 656 66 753 144 q 418 -12 558 -12 q 181 66 278 -12 q 83 278 83 144 m 263 717 q 306 613 263 651 q 418 574 350 574 q 530 613 486 574 q 574 717 574 651 q 530 818 574 779 q 418 857 486 857 q 306 818 350 857 q 263 717 263 779 z "},"9":{"ha":864,"x_min":90,"x_max":774,"o":"m 278 165 q 303 140 278 165 q 410 115 328 115 q 544 172 492 115 q 616 300 597 228 q 635 457 635 372 q 407 353 556 353 q 176 444 263 353 q 90 663 90 535 q 181 890 90 796 q 424 985 272 985 q 688 853 603 985 q 774 501 774 721 q 754 306 774 394 q 694 143 735 217 q 581 28 653 69 q 410 -12 508 -12 q 197 60 276 -12 q 99 229 118 132 l 218 289 q 278 165 228 215 m 232 663 q 283 533 232 589 q 422 478 335 478 q 563 533 513 478 q 614 663 614 589 q 563 799 614 742 q 422 857 511 857 q 284 801 336 857 q 232 663 232 746 z "}," ":{"ha":339,"x_min":0,"x_max":0,"o":""},"!":{"ha":354,"x_min":76,"x_max":279,"o":"m 111 292 l 111 972 l 247 972 l 247 292 l 111 292 m 106 17 q 91 31 106 17 q 76 89 76 46 q 106 161 76 132 q 178 190 135 190 q 250 161 221 190 q 279 89 279 132 q 250 17 279 46 q 178 -12 221 -12 q 106 17 135 -12 z "},"\"":{"ha":481,"x_min":63,"x_max":418,"o":"m 63 611 l 63 972 l 196 972 l 196 685 l 63 611 m 285 611 l 285 972 l 418 972 l 418 685 l 285 611 z "},"#":{"ha":951,"x_min":63,"x_max":889,"o":"m 481 0 l 524 257 l 340 257 l 297 0 l 176 0 l 219 257 l 63 257 l 63 379 l 240 379 l 276 586 l 132 586 l 132 708 l 297 708 l 342 972 l 463 972 l 418 708 l 601 708 l 646 972 l 767 972 l 722 708 l 889 708 l 889 586 l 701 586 l 665 379 l 819 379 l 819 257 l 644 257 l 601 0 l 481 0 m 361 379 l 544 379 l 581 586 l 397 586 l 361 379 z "},"$":{"ha":882,"x_min":69,"x_max":813,"o":"m 385 -125 l 385 -8 q 180 72 261 6 q 69 219 99 138 l 193 289 q 283 169 214 217 q 449 122 353 122 q 611 165 558 122 q 664 269 664 207 q 522 406 664 371 l 369 443 q 121 710 121 503 q 198 894 121 821 q 399 982 275 967 l 399 1097 l 519 1097 l 519 981 q 706 903 633 965 q 803 763 778 840 l 676 696 q 605 804 663 756 q 454 853 547 853 q 318 815 369 853 q 267 713 267 776 q 401 582 267 614 l 561 544 q 749 444 686 514 q 813 272 813 374 q 732 83 813 163 q 506 -10 651 4 l 506 -125 l 385 -125 z "},"%":{"ha":1214,"x_min":56,"x_max":1158,"o":"m 257 0 l 813 972 l 957 972 l 403 0 l 257 0 m 126 563 q 91 598 126 563 q 56 740 56 633 q 126 918 56 847 q 303 989 197 989 q 478 918 408 989 q 549 740 549 847 q 478 563 549 633 q 303 492 408 492 q 126 563 197 492 m 214 837 q 195 819 214 837 q 176 740 176 801 q 214 644 176 679 q 303 608 251 608 q 391 644 354 608 q 428 740 428 679 q 391 837 428 801 q 303 872 354 872 q 214 837 251 872 m 735 58 q 700 94 735 58 q 665 236 665 129 q 735 414 665 343 q 911 485 806 485 q 1088 414 1017 485 q 1158 236 1158 343 q 1088 58 1158 129 q 911 -12 1017 -12 q 735 58 806 -12 m 823 333 q 805 315 823 333 q 786 236 786 297 q 823 140 786 175 q 911 104 860 104 q 999 140 963 104 q 1036 236 1036 175 q 999 333 1036 297 q 911 368 963 368 q 823 333 860 368 z "},"&":{"ha":938,"x_min":49,"x_max":917,"o":"m 283 532 q 199 728 199 632 q 274 910 199 836 q 471 985 349 985 q 636 937 567 985 q 732 808 706 889 l 614 749 q 471 857 578 857 q 374 820 411 857 q 338 728 338 783 q 394 607 338 671 l 615 350 l 779 522 l 874 431 l 701 250 l 917 0 l 735 0 l 607 151 l 529 69 q 329 -12 450 -12 q 128 66 207 -12 q 49 261 49 144 q 115 439 49 364 q 288 528 182 514 l 283 532 m 183 261 q 226 158 183 199 q 329 118 269 118 q 444 172 393 118 l 521 251 l 442 344 q 326 403 394 403 q 225 363 267 403 q 183 261 183 322 z "},"'":{"ha":258,"x_min":63,"x_max":196,"o":"m 63 611 l 63 972 l 196 972 l 196 685 l 63 611 z "},"(":{"ha":619,"x_min":49,"x_max":501,"o":"m 174 11 q 111 100 174 11 q 49 411 49 189 q 174 811 49 633 q 501 1042 299 989 l 501 903 q 283 733 376 865 q 189 411 189 601 q 283 89 189 221 q 501 -81 376 -43 l 501 -219 q 174 11 299 -167 z "},")":{"ha":619,"x_min":118,"x_max":571,"o":"m 337 89 q 384 155 337 89 q 431 411 431 221 q 337 733 431 601 q 118 903 243 865 l 118 1042 q 446 811 321 989 q 571 411 571 633 q 446 11 571 189 q 118 -219 321 -167 l 118 -81 q 337 89 243 -43 z "},"*":{"ha":681,"x_min":104,"x_max":576,"o":"m 288 489 l 288 639 l 156 563 l 104 654 l 235 731 l 104 806 l 156 897 l 288 818 l 288 972 l 393 972 l 393 818 l 524 897 l 576 806 l 446 731 l 576 654 l 524 563 l 393 639 l 393 489 l 288 489 z "},"+":{"ha":675,"x_min":7,"x_max":668,"o":"m 278 97 l 278 378 l 7 378 l 7 492 l 278 492 l 278 772 l 403 772 l 403 492 l 668 492 l 668 378 l 403 378 l 403 97 l 278 97 z "},",":{"ha":328,"x_min":49,"x_max":251,"o":"m 49 -172 l 107 15 l 107 168 l 251 168 l 251 10 l 190 -172 l 49 -172 z "},"-":{"ha":633,"x_min":104,"x_max":529,"o":"m 104 343 l 104 471 l 529 471 l 529 343 l 104 343 z "},".":{"ha":354,"x_min":76,"x_max":279,"o":"m 250 17 q 235 2 250 17 q 178 -12 221 -12 q 106 17 135 -12 q 76 89 76 46 q 106 161 76 132 q 178 190 135 190 q 250 161 221 190 q 279 89 279 132 q 250 17 279 46 z "},"/":{"ha":544,"x_min":14,"x_max":531,"o":"m 14 -185 l 394 1024 l 531 1024 l 149 -185 l 14 -185 z "},":":{"ha":354,"x_min":76,"x_max":279,"o":"m 250 510 q 235 495 250 510 q 178 481 221 481 q 106 510 135 481 q 76 582 76 539 q 106 654 76 625 q 178 683 135 683 q 250 654 221 683 q 279 582 279 625 q 250 510 279 539 m 106 17 q 91 31 106 17 q 76 89 76 46 q 106 161 76 132 q 178 190 135 190 q 250 161 221 190 q 279 89 279 132 q 250 17 279 46 q 178 -12 221 -12 q 106 17 135 -12 z "},";":{"ha":356,"x_min":49,"x_max":281,"o":"m 251 510 q 237 495 251 510 q 179 481 222 481 q 107 510 136 481 q 78 582 78 539 q 107 654 78 625 q 179 683 136 683 q 251 654 222 683 q 281 582 281 625 q 251 510 281 539 m 49 -172 l 107 15 l 107 168 l 251 168 l 251 10 l 190 -172 l 49 -172 z "},"<":{"ha":708,"x_min":63,"x_max":646,"o":"m 646 -17 l 63 322 l 63 461 l 646 800 l 646 658 l 189 392 l 646 125 l 646 -17 z "},"=":{"ha":675,"x_min":7,"x_max":668,"o":"m 7 510 l 7 625 l 668 625 l 668 510 l 7 510 m 7 239 l 7 354 l 668 354 l 668 239 l 7 239 z "},">":{"ha":708,"x_min":63,"x_max":646,"o":"m 63 -17 l 63 125 l 519 392 l 63 658 l 63 800 l 646 461 l 646 322 l 63 -17 z "},"?":{"ha":729,"x_min":76,"x_max":653,"o":"m 271 292 l 271 453 l 440 592 q 513 725 513 653 q 472 816 513 776 q 358 856 431 856 q 248 813 289 856 q 200 719 207 771 l 76 768 q 166 920 94 856 q 358 985 238 985 q 572 908 492 985 q 653 725 653 832 q 538 507 653 601 l 403 397 l 403 292 l 271 292 m 263 17 q 248 31 263 17 q 233 89 233 46 q 263 161 233 132 q 335 190 292 190 q 407 161 378 190 q 436 89 436 132 q 407 17 436 46 q 335 -12 378 -12 q 263 17 292 -12 z "},"@":{"ha":1025,"x_min":76,"x_max":921,"o":"m 660 -153 q 367 -89 499 -153 q 156 102 236 -25 q 76 399 76 229 q 217 785 76 643 q 551 926 357 926 q 820 832 719 926 q 921 619 921 738 l 921 129 l 800 129 l 800 193 q 723 141 772 161 q 621 121 674 121 q 431 196 506 121 q 356 399 357 271 q 432 597 357 518 q 621 675 507 675 q 800 599 736 675 l 800 626 q 734 756 800 696 q 551 815 668 815 q 303 701 406 815 q 200 399 200 588 q 329 77 200 194 q 661 -40 458 -40 q 889 -8 786 -40 l 911 -114 q 660 -153 811 -153 m 481 399 q 524 274 481 324 q 640 225 568 225 q 756 275 711 225 q 800 399 800 325 q 756 521 800 471 q 640 571 711 571 q 525 522 569 571 q 481 399 481 472 z "},"A":{"ha":947,"x_min":35,"x_max":913,"o":"m 35 0 l 379 972 l 569 972 l 913 0 l 761 0 l 671 260 l 274 260 l 183 0 l 35 0 m 321 394 l 624 394 l 472 832 l 321 394 z "},"B":{"ha":932,"x_min":132,"x_max":856,"o":"m 132 0 l 132 972 l 543 972 q 743 897 667 972 q 819 711 819 821 q 719 513 819 582 q 856 281 856 439 q 772 79 856 158 q 557 0 689 0 l 132 0 m 275 128 l 549 128 q 659 171 611 128 q 707 285 707 214 q 661 397 707 354 q 549 439 615 439 l 275 439 l 275 128 m 275 567 l 515 567 q 630 606 588 567 q 672 706 672 646 q 631 806 672 767 q 526 844 590 844 l 275 844 l 275 567 z "},"C":{"ha":1040,"x_min":56,"x_max":985,"o":"m 544 -12 q 193 131 331 -12 q 56 486 56 274 q 193 842 56 699 q 544 985 331 985 q 810 911 696 985 q 981 711 924 838 l 851 642 q 732 788 813 733 q 544 843 651 843 q 299 740 393 843 q 204 486 204 638 q 299 232 204 335 q 544 129 393 129 q 738 188 656 129 q 857 343 819 246 l 985 275 q 816 65 932 143 q 544 -12 700 -12 z "},"D":{"ha":1006,"x_min":132,"x_max":950,"o":"m 132 0 l 132 972 l 464 972 q 815 838 679 972 q 950 486 950 704 q 815 140 950 279 q 464 0 681 0 l 132 0 m 275 132 l 456 132 q 706 233 611 132 q 801 486 801 333 q 706 740 801 639 q 456 840 610 840 l 275 840 l 275 132 z "},"E":{"ha":847,"x_min":132,"x_max":771,"o":"m 132 0 l 132 972 l 771 972 l 771 840 l 275 840 l 275 567 l 728 567 l 728 436 l 275 436 l 275 132 l 771 132 l 771 0 l 132 0 z "},"F":{"ha":832,"x_min":132,"x_max":756,"o":"m 132 0 l 132 972 l 756 972 l 756 842 l 275 842 l 275 542 l 708 542 l 708 411 l 275 411 l 275 0 l 132 0 z "},"G":{"ha":1099,"x_min":56,"x_max":994,"o":"m 858 128 q 536 -12 746 -12 q 191 131 326 -12 q 56 486 56 274 q 192 842 56 700 q 542 985 328 985 q 799 917 690 985 q 960 738 908 850 l 828 669 q 718 797 790 750 q 542 843 646 843 q 297 739 390 843 q 204 486 204 635 q 297 233 204 338 q 542 129 390 129 q 758 199 667 129 q 857 389 849 268 l 550 389 l 550 522 l 994 522 l 994 0 l 858 0 l 858 128 z "},"H":{"ha":1049,"x_min":132,"x_max":917,"o":"m 774 0 l 774 435 l 275 435 l 275 0 l 132 0 l 132 972 l 275 972 l 275 569 l 774 569 l 774 972 l 917 972 l 917 0 l 774 0 z "},"I":{"ha":408,"x_min":132,"x_max":276,"o":"m 132 0 l 132 972 l 276 972 l 276 0 l 132 0 z "},"J":{"ha":856,"x_min":42,"x_max":738,"o":"m 382 -12 q 161 56 244 -12 q 42 224 78 125 l 164 290 q 238 177 181 226 q 382 128 294 128 q 537 185 481 128 q 593 331 593 243 l 593 839 l 243 839 l 243 972 l 738 972 l 738 331 q 639 85 738 182 q 382 -12 540 -12 z "},"K":{"ha":897,"x_min":132,"x_max":869,"o":"m 703 0 l 404 435 l 274 435 l 274 0 l 132 0 l 132 972 l 274 972 l 274 572 l 396 572 l 690 972 l 857 972 l 518 513 l 869 0 l 703 0 z "},"L":{"ha":765,"x_min":132,"x_max":736,"o":"m 132 0 l 132 972 l 275 972 l 275 131 l 736 131 l 736 0 l 132 0 z "},"M":{"ha":1240,"x_min":132,"x_max":1108,"o":"m 132 0 l 132 972 l 326 972 l 621 194 l 915 972 l 1108 972 l 1108 0 l 969 0 l 969 735 l 689 0 l 550 0 l 271 735 l 271 0 l 132 0 z "},"N":{"ha":1060,"x_min":132,"x_max":928,"o":"m 132 0 l 132 972 l 279 972 l 788 239 l 788 972 l 928 972 l 928 0 l 779 0 l 271 732 l 271 0 l 132 0 z "},"O":{"ha":1104,"x_min":56,"x_max":1049,"o":"m 908 131 q 838 59 908 131 q 551 -12 768 -12 q 195 131 335 -12 q 56 486 56 274 q 195 842 56 699 q 551 985 335 985 q 909 842 769 985 q 1049 486 1049 699 q 908 131 1049 274 m 301 742 q 252 690 301 742 q 204 486 204 638 q 301 230 204 335 q 551 125 397 125 q 803 230 706 125 q 900 486 900 335 q 803 742 900 638 q 551 847 706 847 q 301 742 397 847 z "},"P":{"ha":888,"x_min":132,"x_max":825,"o":"m 132 0 l 132 972 l 497 972 q 735 882 644 972 q 825 665 825 792 q 736 438 825 531 q 497 346 647 346 l 275 346 l 275 0 l 132 0 m 275 476 l 486 476 q 627 528 575 476 q 679 661 679 581 q 626 790 679 738 q 486 842 572 842 l 275 842 l 275 476 z "},"Q":{"ha":1104,"x_min":56,"x_max":1049,"o":"m 846 -289 l 469 -167 l 469 -7 q 169 158 283 21 q 56 486 56 296 q 195 842 56 699 q 551 985 335 985 q 909 842 769 985 q 1049 486 1049 699 q 927 151 1049 290 q 611 -10 806 11 l 611 -71 l 846 -147 l 846 -289 m 301 742 q 252 690 301 742 q 204 486 204 638 q 301 230 204 335 q 551 125 397 125 q 803 230 706 125 q 900 486 900 335 q 803 742 900 638 q 551 847 706 847 q 301 742 397 847 z "},"R":{"ha":925,"x_min":132,"x_max":863,"o":"m 132 0 l 132 972 l 517 972 q 750 887 661 972 q 839 676 839 801 q 783 500 839 575 q 636 393 728 425 l 863 129 l 863 0 l 717 0 l 717 92 l 476 374 l 274 374 l 274 0 l 132 0 m 274 504 l 515 504 q 643 553 594 504 q 692 675 692 601 q 642 794 692 746 q 515 842 593 842 l 274 842 l 274 504 z "},"S":{"ha":882,"x_min":69,"x_max":813,"o":"m 449 122 q 611 165 558 122 q 664 269 664 207 q 522 406 664 371 l 369 443 q 121 710 121 503 q 215 909 121 833 q 454 985 310 985 q 685 919 596 985 q 803 763 774 853 l 676 696 q 605 804 663 756 q 454 853 547 853 q 318 815 369 853 q 267 713 267 776 q 401 582 267 614 l 561 544 q 749 444 686 514 q 813 272 813 374 q 716 69 813 150 q 446 -12 619 -12 q 200 57 297 -12 q 69 219 103 126 l 193 289 q 283 169 214 217 q 449 122 353 122 z "},"T":{"ha":857,"x_min":44,"x_max":813,"o":"m 356 0 l 356 839 l 44 839 l 44 972 l 813 972 l 813 839 l 501 839 l 501 0 l 356 0 z "},"U":{"ha":1006,"x_min":118,"x_max":888,"o":"m 501 -12 q 224 95 331 -12 q 118 375 118 203 l 118 972 l 261 972 l 261 374 q 327 192 261 261 q 501 122 393 122 q 678 191 613 122 q 744 374 744 260 l 744 972 l 888 972 l 888 375 q 781 95 888 203 q 501 -12 675 -12 z "},"V":{"ha":939,"x_min":38,"x_max":901,"o":"m 386 0 l 38 972 l 194 972 l 471 176 l 743 972 l 901 972 l 551 0 l 386 0 z "},"W":{"ha":1297,"x_min":35,"x_max":1263,"o":"m 281 0 l 35 972 l 183 972 l 369 218 l 567 972 l 728 972 l 928 218 l 1113 972 l 1263 972 l 1014 0 l 849 0 l 649 754 l 444 0 l 281 0 z "},"X":{"ha":889,"x_min":28,"x_max":861,"o":"m 28 0 l 349 496 l 38 972 l 206 972 l 444 597 l 683 972 l 851 972 l 540 496 l 861 0 l 693 0 l 444 386 l 196 0 l 28 0 z "},"Y":{"ha":901,"x_min":35,"x_max":867,"o":"m 378 0 l 378 399 l 35 972 l 200 972 l 450 540 l 703 972 l 867 972 l 522 399 l 522 0 l 378 0 z "},"Z":{"ha":857,"x_min":63,"x_max":794,"o":"m 63 0 l 63 132 l 606 839 l 75 839 l 75 972 l 786 972 l 786 839 l 244 132 l 794 132 l 794 0 l 63 0 z "},"[":{"ha":471,"x_min":49,"x_max":353,"o":"m 49 -219 l 49 1042 l 353 1042 l 353 914 l 183 914 l 183 -92 l 353 -92 l 353 -219 l 49 -219 z "},"]":{"ha":471,"x_min":118,"x_max":422,"o":"m 422 -219 l 118 -219 l 118 -92 l 288 -92 l 288 914 l 118 914 l 118 1042 l 422 1042 l 422 -219 z "},"^":{"ha":817,"x_min":63,"x_max":754,"o":"m 63 431 l 328 972 l 489 972 l 754 431 l 614 431 l 408 849 l 203 431 l 63 431 z "},"_":{"ha":807,"x_min":76,"x_max":731,"o":"m 76 -157 l 76 -37 l 731 -37 l 731 -157 l 76 -157 z "},"`":{"ha":319,"x_min":40,"x_max":282,"o":"m 282 810 l 165 810 l 40 1019 l 196 1019 l 282 810 z "},"a":{"ha":771,"x_min":64,"x_max":667,"o":"m 317 -14 q 139 49 208 -14 q 69 208 69 111 q 135 365 69 304 q 318 435 200 426 l 529 449 l 529 457 q 481 558 529 513 q 353 603 433 603 q 235 565 279 603 q 174 479 190 528 l 64 535 q 165 671 92 614 q 354 728 238 728 q 583 644 499 728 q 667 451 667 561 l 667 0 l 529 0 l 529 82 q 443 13 501 39 q 317 -14 385 -14 m 208 211 q 243 136 208 164 q 331 108 278 108 q 477 161 422 108 q 532 288 532 214 l 532 332 l 328 318 q 241 288 274 315 q 208 211 208 260 z "},"b":{"ha":900,"x_min":118,"x_max":844,"o":"m 496 -12 q 358 17 425 -12 q 257 90 292 46 l 257 0 l 118 0 l 118 1028 l 257 1028 l 257 621 q 355 698 289 668 q 496 728 421 728 q 744 623 644 728 q 844 358 844 518 q 745 88 844 189 q 496 -12 646 -12 m 254 358 q 316 185 254 256 q 479 115 378 115 q 642 185 581 115 q 704 358 704 256 q 642 529 704 460 q 479 599 581 599 q 316 529 378 599 q 254 358 254 460 z "},"c":{"ha":808,"x_min":56,"x_max":751,"o":"m 424 -12 q 163 91 269 -12 q 56 358 56 194 q 162 625 56 522 q 424 728 268 728 q 635 667 551 728 q 751 519 718 606 l 631 457 q 556 558 610 517 q 424 599 503 599 q 260 531 324 599 q 196 358 196 463 q 260 185 196 256 q 424 115 324 115 q 556 156 501 115 q 631 254 610 196 l 751 192 q 633 48 718 108 q 424 -12 549 -12 z "},"d":{"ha":886,"x_min":56,"x_max":782,"o":"m 406 -12 q 155 88 254 -12 q 56 358 56 189 q 156 623 56 518 q 406 728 256 728 q 545 697 479 728 q 643 621 611 667 l 643 1028 l 782 1028 l 782 0 l 643 0 l 643 90 q 543 17 610 46 q 406 -12 476 -12 m 196 358 q 258 185 196 256 q 421 115 319 115 q 584 185 522 115 q 646 358 646 256 q 584 529 646 460 q 421 599 522 599 q 258 529 319 599 q 196 358 196 460 z "},"e":{"ha":814,"x_min":56,"x_max":758,"o":"m 418 -12 q 156 93 256 -12 q 56 357 56 199 q 156 622 56 517 q 417 728 256 728 q 664 624 569 728 q 758 374 758 521 l 758 308 l 196 308 q 269 162 208 211 q 418 113 329 113 q 553 152 497 113 q 628 244 610 192 l 735 188 q 625 50 706 113 q 418 -12 544 -12 m 200 425 l 614 425 q 558 551 613 496 q 415 606 503 606 q 275 558 333 606 q 200 425 217 511 z "},"f":{"ha":533,"x_min":38,"x_max":481,"o":"m 160 0 l 160 592 l 38 592 l 38 715 l 163 715 l 163 1028 l 446 1028 l 446 903 l 300 903 l 300 715 l 481 715 l 481 592 l 300 592 l 300 0 l 160 0 z "},"g":{"ha":883,"x_min":56,"x_max":779,"o":"m 421 -199 q 581 -142 521 -199 q 640 0 640 -86 l 640 96 q 542 21 607 50 q 403 -8 478 -8 q 155 94 254 -8 q 56 358 56 197 q 155 627 56 526 q 403 728 254 728 q 540 698 475 728 q 640 622 606 668 l 640 715 l 779 715 l 779 7 q 681 -233 779 -135 q 421 -331 583 -331 q 208 -268 293 -331 q 92 -121 124 -206 l 210 -60 q 286 -159 231 -119 q 421 -199 342 -199 m 196 358 q 257 188 196 257 q 419 119 318 119 q 581 188 519 119 q 643 358 643 257 q 581 529 643 460 q 419 599 519 599 q 257 530 318 599 q 196 358 196 461 z "},"h":{"ha":836,"x_min":118,"x_max":732,"o":"m 118 0 l 118 1028 l 257 1028 l 257 626 q 465 728 324 728 q 658 650 583 728 q 732 456 732 572 l 732 0 l 593 0 l 593 422 q 546 550 593 503 q 425 597 499 597 q 305 549 353 597 q 257 422 257 500 l 257 0 l 118 0 z "},"i":{"ha":369,"x_min":83,"x_max":286,"o":"m 115 0 l 115 715 l 254 715 l 254 0 l 115 0 m 113 863 q 98 877 113 863 q 83 935 83 892 q 113 1007 83 978 q 185 1036 142 1036 q 257 1007 228 1036 q 286 935 286 978 q 257 863 286 892 q 185 833 228 833 q 113 863 142 833 z "},"j":{"ha":372,"x_min":-14,"x_max":303,"o":"m -14 -322 l -14 -158 l 129 -61 l 131 715 l 269 715 l 269 -140 l -14 -322 m 129 863 q 115 877 129 863 q 100 935 100 892 q 129 1007 100 978 q 201 1036 158 1036 q 274 1007 244 1036 q 303 935 303 978 q 274 863 303 892 q 201 833 244 833 q 129 863 158 833 z "},"k":{"ha":750,"x_min":118,"x_max":729,"o":"m 118 0 l 118 1028 l 257 1028 l 257 472 l 371 472 l 557 715 l 722 715 l 483 400 l 729 0 l 567 0 l 356 339 l 257 339 l 257 0 l 118 0 z "},"l":{"ha":347,"x_min":104,"x_max":243,"o":"m 104 0 l 104 1028 l 243 1028 l 243 0 l 104 0 z "},"m":{"ha":1288,"x_min":118,"x_max":1183,"o":"m 118 0 l 118 715 l 257 715 l 257 625 q 335 700 282 672 q 451 728 388 728 q 672 617 593 728 q 901 728 757 728 q 1103 650 1024 728 q 1183 458 1183 572 l 1183 0 l 1044 0 l 1044 425 q 999 551 1044 504 q 883 597 954 597 q 765 549 811 597 q 719 425 719 501 l 719 0 l 581 0 l 581 425 q 536 551 581 504 q 419 597 492 597 q 302 549 347 597 q 257 425 257 501 l 257 0 l 118 0 z "},"n":{"ha":836,"x_min":118,"x_max":732,"o":"m 118 0 l 118 715 l 257 715 l 257 626 q 463 728 321 728 q 656 650 581 728 q 732 456 732 572 l 732 0 l 593 0 l 593 422 q 546 550 593 503 q 425 597 499 597 q 305 549 353 597 q 257 422 257 500 l 257 0 l 118 0 z "},"o":{"ha":864,"x_min":56,"x_max":808,"o":"m 702 92 q 649 40 702 92 q 432 -12 596 -12 q 162 92 268 -12 q 56 357 56 196 q 162 623 56 518 q 432 728 268 728 q 702 623 596 728 q 808 357 808 518 q 702 92 808 197 m 263 531 q 230 497 263 531 q 196 357 196 463 q 264 183 196 251 q 432 115 332 115 q 601 183 533 115 q 668 357 668 251 q 601 531 668 463 q 432 599 533 599 q 263 531 331 599 z "},"p":{"ha":900,"x_min":118,"x_max":844,"o":"m 118 -318 l 118 715 l 257 715 l 257 624 q 356 699 293 671 q 496 728 418 728 q 745 627 646 728 q 844 357 844 526 q 744 92 844 197 q 496 -12 644 -12 q 353 17 418 -12 q 257 94 289 47 l 257 -318 l 118 -318 m 316 528 q 285 493 316 528 q 254 357 254 458 q 316 186 254 256 q 479 117 378 117 q 642 186 581 117 q 704 357 704 256 q 642 529 704 460 q 479 599 581 599 q 316 528 378 599 z "},"q":{"ha":886,"x_min":56,"x_max":782,"o":"m 643 94 q 545 17 611 47 q 406 -12 479 -12 q 156 92 256 -12 q 56 357 56 196 q 155 627 56 526 q 406 728 254 728 q 543 699 476 728 q 643 624 610 669 l 643 715 l 782 715 l 782 -318 l 643 -318 l 643 94 m 196 357 q 258 186 196 256 q 421 117 319 117 q 584 186 522 117 q 646 357 646 256 q 584 528 646 458 q 421 599 522 599 q 258 529 319 599 q 196 357 196 460 z "},"r":{"ha":569,"x_min":118,"x_max":528,"o":"m 118 0 l 118 715 l 257 715 l 257 588 l 528 731 l 528 581 l 257 446 l 257 0 l 118 0 z "},"s":{"ha":714,"x_min":56,"x_max":654,"o":"m 361 -12 q 158 46 236 -12 q 56 181 81 104 l 172 239 q 237 151 186 190 q 364 111 288 111 q 473 136 433 111 q 513 201 513 161 q 422 286 513 268 l 283 313 q 145 381 196 331 q 94 515 94 431 q 171 668 94 608 q 367 728 247 728 q 556 675 488 728 q 647 551 624 622 l 532 496 q 478 574 522 540 q 365 607 435 607 q 266 582 303 607 q 229 518 229 557 q 314 438 229 454 l 460 408 q 604 336 554 390 q 654 206 654 282 q 574 48 654 108 q 361 -12 493 -12 z "},"t":{"ha":556,"x_min":38,"x_max":492,"o":"m 165 0 l 165 593 l 38 593 l 38 715 l 169 715 l 169 900 l 304 900 l 304 715 l 489 715 l 489 593 l 304 593 l 304 131 l 492 131 l 492 0 l 165 0 z "},"u":{"ha":831,"x_min":104,"x_max":768,"o":"m 381 -12 q 181 66 258 -12 q 104 263 104 144 l 104 715 l 243 715 l 243 293 q 290 165 243 213 q 410 118 338 118 q 531 167 483 118 q 579 293 579 215 l 579 715 l 718 715 l 718 143 l 768 0 l 619 0 l 592 75 q 510 13 565 39 q 381 -12 456 -12 z "},"v":{"ha":772,"x_min":26,"x_max":746,"o":"m 313 0 l 26 715 l 178 715 l 390 163 l 593 715 l 746 715 l 463 0 l 313 0 z "},"w":{"ha":1086,"x_min":26,"x_max":1060,"o":"m 231 0 l 26 715 l 171 715 l 314 182 l 465 715 l 622 715 l 774 182 l 917 715 l 1060 715 l 856 0 l 696 0 l 544 531 l 392 0 l 231 0 z "},"x":{"ha":736,"x_min":35,"x_max":701,"o":"m 35 0 l 271 364 l 43 715 l 201 715 l 369 453 l 536 715 l 697 715 l 468 367 l 701 0 l 543 0 l 369 275 l 196 0 l 35 0 z "},"y":{"ha":808,"x_min":26,"x_max":782,"o":"m 190 -318 l 329 6 l 26 715 l 182 715 l 407 167 l 622 715 l 782 715 l 346 -318 l 190 -318 z "},"z":{"ha":711,"x_min":69,"x_max":642,"o":"m 69 0 l 69 122 l 465 593 l 71 593 l 71 715 l 639 715 l 639 593 l 242 122 l 642 122 l 642 0 l 69 0 z "},"{":{"ha":571,"x_min":49,"x_max":453,"o":"m 49 475 l 131 542 l 131 760 q 208 963 131 885 q 415 1042 285 1042 l 453 1042 l 453 914 l 418 914 q 306 872 346 914 q 265 760 265 829 l 265 500 l 154 411 l 265 322 l 265 63 q 306 -49 265 -7 q 418 -92 346 -92 l 453 -92 l 453 -219 l 415 -219 q 208 -141 285 -219 q 131 63 131 -62 l 131 281 l 49 347 l 49 475 z "},"|":{"ha":394,"x_min":128,"x_max":267,"o":"m 128 -192 l 128 1056 l 267 1056 l 267 -192 l 128 -192 z "},"}":{"ha":571,"x_min":118,"x_max":522,"o":"m 522 347 l 440 281 l 440 63 q 363 -141 440 -62 q 156 -219 286 -219 l 118 -219 l 118 -92 l 153 -92 q 265 -49 225 -92 q 306 63 306 -7 l 306 322 l 417 411 l 306 500 l 306 760 q 265 872 306 829 q 153 914 225 914 l 118 914 l 118 1042 l 156 1042 q 363 963 286 1042 q 440 760 440 885 l 440 542 l 522 475 l 522 347 z "},"~":{"ha":789,"x_min":56,"x_max":733,"o":"m 531 293 q 396 331 464 293 l 332 365 q 257 386 292 386 q 142 307 182 386 l 56 381 q 257 513 118 513 q 388 476 324 513 l 451 442 q 531 419 493 419 q 646 499 607 419 l 733 425 q 531 293 668 293 z "}," ":{"ha":339,"x_min":0,"x_max":0,"o":""},"¡":{"ha":354,"x_min":76,"x_max":279,"o":"m 111 418 l 247 418 l 247 -262 l 111 -262 l 111 418 m 106 549 q 91 563 106 549 q 76 621 76 578 q 106 693 76 664 q 178 722 135 722 q 250 693 221 722 q 279 621 279 664 q 250 549 279 578 q 178 519 221 519 q 106 549 135 519 z "},"¢":{"ha":808,"x_min":56,"x_max":751,"o":"m 360 0 l 360 119 q 142 240 228 140 q 56 485 56 339 q 141 729 56 631 q 360 849 226 828 l 360 972 l 483 972 l 483 850 q 654 778 586 836 q 751 646 722 721 l 631 583 q 556 684 610 643 q 424 725 503 725 q 260 657 324 725 q 196 485 196 589 q 260 312 196 382 q 424 242 324 242 q 556 282 501 242 q 631 381 610 322 l 751 318 q 653 190 722 247 q 483 118 583 132 l 483 0 l 360 0 z "},"£":{"ha":839,"x_min":49,"x_max":790,"o":"m 50 0 l 50 132 l 160 271 l 160 422 l 49 422 l 49 542 l 160 542 l 160 685 q 243 896 160 807 q 472 985 326 985 q 688 911 608 985 q 781 742 767 838 l 653 683 q 602 802 650 751 q 472 853 554 853 q 345 803 390 853 q 300 681 300 753 l 300 542 l 629 542 l 629 422 l 300 422 l 300 240 l 213 131 l 790 131 l 790 0 l 50 0 z "},"¤":{"ha":825,"x_min":67,"x_max":758,"o":"m 154 -22 l 67 65 l 169 171 q 122 332 122 244 q 172 497 122 424 l 67 604 l 154 692 l 261 583 q 418 629 333 629 q 568 589 500 629 l 671 692 l 758 604 l 660 503 q 715 332 715 425 q 663 164 715 236 l 758 65 l 671 -22 l 572 78 q 418 35 503 35 q 257 83 329 35 l 154 -22 m 239 332 q 290 201 239 251 q 418 150 342 150 q 544 201 494 150 q 594 332 594 251 q 544 462 594 411 q 418 513 494 513 q 290 462 342 513 q 239 332 239 411 z "},"¥":{"ha":901,"x_min":35,"x_max":867,"o":"m 128 399 l 128 525 l 303 525 l 35 972 l 200 972 l 450 540 l 703 972 l 867 972 l 599 525 l 774 525 l 774 399 l 522 399 l 522 313 l 774 313 l 774 186 l 522 186 l 522 0 l 378 0 l 378 186 l 128 186 l 128 313 l 378 313 l 378 399 l 128 399 z "},"¦":{"ha":394,"x_min":128,"x_max":267,"o":"m 128 558 l 128 1056 l 267 1056 l 267 558 l 128 558 m 128 -192 l 128 306 l 267 306 l 267 -192 l 128 -192 z "},"§":{"ha":744,"x_min":63,"x_max":682,"o":"m 560 722 q 503 822 547 781 q 382 863 460 863 q 281 828 319 863 q 242 743 242 794 q 303 636 242 686 l 590 399 q 682 228 682 324 q 624 88 682 153 l 592 51 q 639 -85 639 -10 q 559 -258 639 -189 q 363 -326 479 -326 q 169 -267 243 -326 q 72 -124 96 -207 l 185 -64 q 241 -163 197 -122 q 363 -204 285 -204 q 463 -169 422 -204 q 503 -85 503 -135 q 442 22 503 -29 l 154 260 q 63 431 63 335 q 118 569 63 500 l 150 610 q 104 743 104 669 q 183 916 104 847 q 382 985 263 985 q 575 926 503 985 q 672 782 647 867 l 560 722 m 199 431 q 238 360 199 390 l 499 139 l 521 165 q 546 228 546 197 q 507 299 546 268 l 244 519 l 224 493 q 199 431 199 461 z "},"¨":{"ha":517,"x_min":38,"x_max":478,"o":"m 451 862 q 438 848 451 862 q 386 835 425 835 q 320 862 347 835 q 293 928 293 889 q 320 994 293 967 q 386 1021 347 1021 q 451 994 425 1021 q 478 928 478 967 q 451 862 478 889 m 65 862 q 51 875 65 862 q 38 928 38 889 q 65 994 38 967 q 131 1021 92 1021 q 196 994 169 1021 q 222 928 222 967 q 196 862 222 889 q 131 835 169 835 q 65 862 92 835 z "},"©":{"ha":1136,"x_min":58,"x_max":1078,"o":"m 858 203 q 914 260 858 203 q 969 486 969 317 q 858 769 969 656 q 568 882 746 882 q 278 769 390 882 q 167 486 167 656 q 278 203 167 317 q 568 90 390 90 q 858 203 746 90 m 58 486 q 205 842 60 699 q 568 985 350 985 q 931 842 786 985 q 1078 486 1076 699 q 931 131 1076 274 q 568 -12 786 -12 q 205 131 350 -12 q 58 486 60 274 m 369 288 q 330 328 369 288 q 290 486 290 368 q 369 684 290 604 q 569 764 449 764 q 720 721 656 764 q 815 604 785 678 l 728 563 q 569 667 686 667 q 444 615 492 667 q 396 486 396 564 q 444 357 396 408 q 569 306 492 306 q 728 410 686 306 l 815 368 q 720 251 785 294 q 569 208 656 208 q 369 288 449 208 z "},"ª":{"ha":482,"x_min":38,"x_max":443,"o":"m 211 411 q 90 452 138 411 q 42 561 42 493 q 88 664 42 622 q 214 711 133 706 l 346 719 l 346 722 q 316 785 346 757 q 233 813 286 813 q 155 787 183 813 q 117 731 126 761 l 38 772 q 107 863 58 824 q 233 901 156 901 q 388 847 332 901 q 443 721 443 793 l 443 419 l 346 419 l 346 465 q 211 411 306 411 m 165 612 q 154 603 165 612 q 143 564 143 594 q 165 516 143 533 q 221 499 188 499 q 313 535 279 499 q 347 618 347 571 l 347 639 l 224 631 q 165 612 188 629 z "},"«":{"ha":840,"x_min":76,"x_max":764,"o":"m 621 92 l 475 331 l 403 331 l 403 449 l 471 449 l 621 694 l 764 694 l 583 393 l 764 92 l 621 92 m 76 331 l 76 449 l 144 449 l 294 694 l 438 694 l 257 393 l 438 92 l 294 92 l 149 331 l 76 331 z "},"­":{"ha":633,"x_min":104,"x_max":529,"o":"m 104 343 l 104 471 l 529 471 l 529 343 l 104 343 z "},"®":{"ha":689,"x_min":51,"x_max":638,"o":"m 551 489 q 508 448 551 489 q 344 407 465 407 q 138 489 224 407 q 51 696 51 571 q 138 904 51 822 q 344 986 224 986 q 551 904 465 986 q 638 696 638 822 q 551 489 638 571 m 189 854 q 158 823 189 854 q 126 696 126 792 q 189 538 126 600 q 344 476 251 476 q 500 538 438 476 q 563 696 563 600 q 500 854 563 792 q 344 917 438 917 q 189 854 251 917 m 239 551 l 239 840 l 361 840 q 435 814 406 840 q 464 747 464 788 q 413 661 464 685 l 475 586 l 475 551 l 406 551 l 406 575 l 344 651 l 306 651 l 306 551 l 239 551 m 306 708 l 358 708 q 385 719 375 708 q 396 747 396 729 q 385 773 396 763 q 358 783 374 783 l 306 783 l 306 708 z "},"¯":{"ha":467,"x_min":38,"x_max":428,"o":"m 38 858 l 38 979 l 428 979 l 428 858 l 38 858 z "},"°":{"ha":642,"x_min":76,"x_max":565,"o":"m 495 580 q 460 545 495 580 q 321 511 425 511 q 147 580 217 511 q 76 750 76 649 q 147 920 76 851 q 321 989 217 989 q 495 920 425 989 q 565 750 565 851 q 495 580 565 649 m 228 842 q 209 824 228 842 q 190 750 190 806 q 228 658 190 694 q 321 621 265 621 q 413 658 376 621 q 450 750 450 694 q 413 842 450 806 q 321 879 376 879 q 228 842 265 879 z "},"±":{"ha":675,"x_min":7,"x_max":668,"o":"m 278 281 l 278 501 l 7 501 l 7 617 l 278 617 l 278 838 l 403 838 l 403 617 l 668 617 l 668 501 l 403 501 l 403 281 l 278 281 m 7 75 l 7 190 l 668 190 l 668 75 l 7 75 z "},"²":{"ha":571,"x_min":63,"x_max":508,"o":"m 63 351 l 63 461 l 322 679 q 379 781 379 726 q 351 847 379 818 q 275 875 322 875 q 198 845 226 875 q 163 775 169 815 l 63 814 q 129 933 74 882 q 275 985 185 985 q 440 921 381 985 q 500 781 500 857 q 390 596 500 683 l 224 461 l 508 461 l 508 351 l 63 351 z "},"³":{"ha":578,"x_min":63,"x_max":515,"o":"m 289 453 q 367 476 339 453 q 394 542 394 500 q 367 599 394 576 q 289 622 339 622 l 226 622 l 226 726 l 281 726 q 353 749 328 726 q 379 803 379 772 q 354 853 379 832 q 285 875 329 875 q 178 793 201 875 l 78 836 q 144 942 93 899 q 285 985 196 985 q 440 934 381 986 q 500 807 500 882 q 477 728 500 761 q 425 683 454 696 q 515 542 515 642 q 452 398 515 453 q 289 343 389 343 q 140 386 197 343 q 63 496 82 429 l 158 540 q 203 478 169 503 q 289 453 238 453 z "},"´":{"ha":318,"x_min":38,"x_max":279,"o":"m 38 810 l 124 1019 l 279 1019 l 154 810 l 38 810 z "},"¶":{"ha":988,"x_min":56,"x_max":857,"o":"m 399 328 q 156 428 256 328 q 56 671 56 529 q 156 913 56 813 q 399 1014 256 1014 l 538 1014 l 538 -144 l 399 -144 l 399 328 m 621 -144 l 621 1014 l 857 1014 l 857 883 l 761 883 l 761 -144 l 621 -144 z "},"·":{"ha":354,"x_min":76,"x_max":279,"o":"m 250 358 q 235 344 250 358 q 178 329 221 329 q 106 358 135 329 q 76 431 76 388 q 106 503 76 474 q 178 532 135 532 q 250 503 221 532 q 279 431 279 474 q 250 358 279 388 z "},"¸":{"ha":358,"x_min":38,"x_max":321,"o":"m 168 -307 q 38 -253 86 -307 l 92 -185 q 160 -215 115 -215 q 199 -202 185 -215 q 214 -167 214 -189 q 199 -133 214 -147 q 157 -119 185 -119 l 100 -119 l 121 19 l 219 19 l 207 -42 q 285 -77 250 -44 q 321 -167 321 -110 q 281 -267 321 -226 q 168 -307 242 -307 z "},"¹":{"ha":429,"x_min":63,"x_max":367,"o":"m 249 349 l 249 832 l 143 740 l 63 740 l 63 856 l 114 856 l 249 972 l 367 972 l 367 349 l 249 349 z "},"º":{"ha":575,"x_min":38,"x_max":538,"o":"m 288 411 q 108 480 178 411 q 38 656 38 549 q 108 832 38 763 q 288 901 179 901 q 467 832 396 901 q 538 656 538 763 q 467 481 538 550 q 288 411 396 411 m 183 764 q 161 742 183 764 q 140 656 140 721 q 183 548 140 590 q 288 506 225 506 q 393 548 351 506 q 435 656 435 590 q 393 764 435 721 q 288 807 351 807 q 183 764 225 807 z "},"»":{"ha":840,"x_min":76,"x_max":764,"o":"m 219 92 l 76 92 l 257 393 l 76 694 l 219 694 l 369 449 l 438 449 l 438 331 l 365 331 l 219 92 m 403 92 l 583 393 l 403 694 l 546 694 l 696 449 l 764 449 l 764 331 l 692 331 l 546 92 l 403 92 z "},"¼":{"ha":1251,"x_min":63,"x_max":1190,"o":"m 253 0 l 839 972 l 967 972 l 383 0 l 253 0 m 63 740 l 63 856 l 114 856 l 249 972 l 367 972 l 367 349 l 249 349 l 249 832 l 143 740 l 63 740 m 701 111 l 701 217 l 863 536 l 863 628 l 979 628 l 979 522 l 828 217 l 994 217 l 994 385 l 1108 385 l 1108 217 l 1190 217 l 1190 111 l 1108 111 l 1108 0 l 994 0 l 994 111 l 701 111 z "},"½":{"ha":1303,"x_min":63,"x_max":1240,"o":"m 260 0 l 844 972 l 972 972 l 390 0 l 260 0 m 63 740 l 63 856 l 114 856 l 249 972 l 367 972 l 367 349 l 249 349 l 249 832 l 143 740 l 63 740 m 794 0 l 794 110 l 1054 328 q 1111 429 1111 375 q 1083 495 1111 467 q 1007 524 1054 524 q 930 494 958 524 q 894 424 901 464 l 794 463 q 861 582 806 531 q 1007 633 917 633 q 1172 569 1113 633 q 1232 429 1232 506 q 1122 244 1232 332 l 956 110 l 1240 110 l 1240 0 l 794 0 z "},"¾":{"ha":1369,"x_min":63,"x_max":1307,"o":"m 361 0 l 946 972 l 1074 972 l 492 0 l 361 0 m 63 496 l 158 540 q 203 478 169 503 q 289 453 238 453 q 367 476 339 453 q 394 542 394 500 q 367 599 394 576 q 289 622 339 622 l 226 622 l 226 726 l 281 726 q 353 749 328 726 q 379 803 379 772 q 354 853 379 832 q 285 875 329 875 q 178 793 201 875 l 78 836 q 144 942 93 899 q 285 985 196 985 q 440 934 381 986 q 500 807 500 882 q 477 728 500 761 q 425 683 454 696 q 515 542 515 642 q 452 398 515 453 q 289 343 389 343 q 140 386 197 343 q 63 496 82 429 m 819 111 l 819 217 l 981 536 l 981 628 l 1096 628 l 1096 522 l 944 217 l 1113 217 l 1113 385 l 1226 385 l 1226 217 l 1307 217 l 1307 111 l 1226 111 l 1226 0 l 1113 0 l 1113 111 l 819 111 z "},"¿":{"ha":729,"x_min":76,"x_max":653,"o":"m 458 418 l 458 257 l 289 118 q 217 -15 217 57 q 258 -106 217 -67 q 371 -146 299 -146 q 481 -103 440 -146 q 529 -10 522 -61 l 653 -58 q 563 -210 635 -146 q 371 -275 492 -275 q 157 -199 238 -275 q 76 -15 76 -122 q 192 203 76 108 l 326 313 l 326 418 l 458 418 m 322 549 q 308 563 322 549 q 293 621 293 578 q 322 693 293 664 q 394 722 351 722 q 467 693 438 722 q 496 621 496 664 q 467 549 496 578 q 394 519 438 519 q 322 549 351 519 z "},"À":{"ha":947,"x_min":35,"x_max":913,"o":"m 35 0 l 379 972 l 569 972 l 913 0 l 761 0 l 671 260 l 274 260 l 183 0 l 35 0 m 317 1276 l 472 1276 l 558 1067 l 442 1067 l 317 1276 m 321 394 l 624 394 l 472 832 l 321 394 z "},"Á":{"ha":947,"x_min":35,"x_max":913,"o":"m 35 0 l 379 972 l 569 972 l 913 0 l 761 0 l 671 260 l 274 260 l 183 0 l 35 0 m 321 394 l 624 394 l 472 832 l 321 394 m 393 1067 l 479 1276 l 635 1276 l 510 1067 l 393 1067 z "},"Â":{"ha":947,"x_min":35,"x_max":913,"o":"m 35 0 l 379 972 l 569 972 l 913 0 l 761 0 l 671 260 l 274 260 l 183 0 l 35 0 m 257 1067 l 394 1276 l 557 1276 l 694 1067 l 569 1067 l 475 1176 l 381 1067 l 257 1067 m 321 394 l 624 394 l 472 832 l 321 394 z "},"Ã":{"ha":947,"x_min":35,"x_max":913,"o":"m 35 0 l 379 972 l 569 972 l 913 0 l 761 0 l 671 260 l 274 260 l 183 0 l 35 0 m 235 1129 l 260 1176 q 311 1246 283 1222 q 383 1269 339 1269 q 469 1242 419 1269 l 500 1225 q 547 1208 529 1208 q 592 1239 578 1208 l 608 1272 l 699 1226 l 671 1171 q 553 1090 631 1090 q 467 1117 517 1090 l 428 1139 q 390 1151 406 1151 q 349 1122 364 1151 l 326 1081 l 235 1129 m 321 394 l 624 394 l 472 832 l 321 394 z "},"Ä":{"ha":947,"x_min":35,"x_max":913,"o":"m 35 0 l 379 972 l 569 972 l 913 0 l 761 0 l 671 260 l 274 260 l 183 0 l 35 0 m 280 1119 q 266 1132 280 1119 q 253 1185 253 1146 q 280 1251 253 1224 q 346 1278 307 1278 q 411 1251 385 1278 q 438 1185 438 1224 q 411 1119 438 1146 q 346 1092 385 1092 q 280 1119 307 1092 m 321 394 l 624 394 l 472 832 l 321 394 m 535 1119 q 522 1132 535 1119 q 508 1185 508 1146 q 535 1251 508 1224 q 601 1278 563 1278 q 667 1251 640 1278 q 693 1185 693 1224 q 667 1119 693 1146 q 601 1092 640 1092 q 535 1119 563 1092 z "},"Å":{"ha":947,"x_min":35,"x_max":913,"o":"m 35 0 l 379 972 l 569 972 l 913 0 l 761 0 l 671 260 l 274 260 l 183 0 l 35 0 m 358 1088 q 335 1110 358 1088 q 313 1199 313 1132 q 358 1310 313 1265 q 472 1354 404 1354 q 585 1310 539 1354 q 631 1199 631 1265 q 585 1088 631 1132 q 472 1044 539 1044 q 358 1088 404 1044 m 321 394 l 624 394 l 472 832 l 321 394 m 422 1247 q 413 1238 422 1247 q 403 1199 403 1228 q 422 1151 403 1169 q 472 1132 442 1132 q 522 1151 503 1132 q 540 1199 540 1169 q 522 1247 540 1228 q 472 1267 503 1267 q 422 1247 442 1267 z "},"Æ":{"ha":1263,"x_min":35,"x_max":1186,"o":"m 35 0 l 379 972 l 1186 972 l 1186 842 l 611 842 l 713 567 l 1143 567 l 1143 436 l 757 436 l 868 129 l 1186 129 l 1186 0 l 761 0 l 611 435 l 332 435 l 181 0 l 35 0 m 376 567 l 565 567 l 472 832 l 376 567 z "},"Ç":{"ha":1040,"x_min":56,"x_max":985,"o":"m 521 -307 q 390 -253 439 -307 l 444 -185 q 513 -215 468 -215 q 552 -202 538 -215 q 567 -167 567 -189 q 552 -133 567 -147 q 510 -119 538 -119 l 453 -119 l 469 -7 q 170 156 285 18 q 56 486 56 294 q 193 842 56 699 q 544 985 331 985 q 810 911 696 985 q 981 711 924 838 l 851 642 q 732 788 813 733 q 544 843 651 843 q 299 740 393 843 q 204 486 204 638 q 299 232 204 335 q 544 129 393 129 q 738 188 656 129 q 857 343 819 246 l 985 275 q 824 71 933 149 q 565 -12 714 -7 l 560 -42 q 638 -77 603 -44 q 674 -167 674 -110 q 634 -267 674 -226 q 521 -307 594 -307 z "},"È":{"ha":847,"x_min":132,"x_max":771,"o":"m 132 0 l 132 972 l 771 972 l 771 840 l 275 840 l 275 567 l 728 567 l 728 436 l 275 436 l 275 132 l 771 132 l 771 0 l 132 0 m 304 1276 l 460 1276 l 546 1067 l 429 1067 l 304 1276 z "},"É":{"ha":847,"x_min":132,"x_max":771,"o":"m 132 0 l 132 972 l 771 972 l 771 840 l 275 840 l 275 567 l 728 567 l 728 436 l 275 436 l 275 132 l 771 132 l 771 0 l 132 0 m 381 1067 l 467 1276 l 622 1276 l 497 1067 l 381 1067 z "},"Ê":{"ha":847,"x_min":132,"x_max":771,"o":"m 132 0 l 132 972 l 771 972 l 771 840 l 275 840 l 275 567 l 728 567 l 728 436 l 275 436 l 275 132 l 771 132 l 771 0 l 132 0 m 244 1067 l 382 1276 l 544 1276 l 682 1067 l 557 1067 l 463 1176 l 368 1067 l 244 1067 z "},"Ë":{"ha":847,"x_min":132,"x_max":771,"o":"m 132 0 l 132 972 l 771 972 l 771 840 l 275 840 l 275 567 l 728 567 l 728 436 l 275 436 l 275 132 l 771 132 l 771 0 l 132 0 m 267 1119 q 254 1132 267 1119 q 240 1185 240 1146 q 267 1251 240 1224 q 333 1278 294 1278 q 399 1251 372 1278 q 425 1185 425 1224 q 399 1119 425 1146 q 333 1092 372 1092 q 267 1119 294 1092 m 523 1119 q 509 1132 523 1119 q 496 1185 496 1146 q 523 1251 496 1224 q 589 1278 550 1278 q 654 1251 628 1278 q 681 1185 681 1224 q 654 1119 681 1146 q 589 1092 628 1092 q 523 1119 550 1092 z "},"Ì":{"ha":408,"x_min":47,"x_max":289,"o":"m 132 0 l 132 972 l 276 972 l 276 0 l 132 0 m 47 1276 l 203 1276 l 289 1067 l 172 1067 l 47 1276 z "},"Í":{"ha":408,"x_min":124,"x_max":365,"o":"m 132 0 l 132 972 l 276 972 l 276 0 l 132 0 m 124 1067 l 210 1276 l 365 1276 l 240 1067 l 124 1067 z "},"Î":{"ha":408,"x_min":-11,"x_max":426,"o":"m 132 0 l 132 972 l 276 972 l 276 0 l 132 0 m -11 1067 l 126 1276 l 289 1276 l 426 1067 l 301 1067 l 207 1176 l 113 1067 l -11 1067 z "},"Ï":{"ha":408,"x_min":-17,"x_max":424,"o":"m 132 0 l 132 972 l 276 972 l 276 0 l 132 0 m 10 1119 q -3 1132 10 1119 q -17 1185 -17 1146 q 10 1251 -17 1224 q 76 1278 38 1278 q 142 1251 115 1278 q 168 1185 168 1224 q 142 1119 168 1146 q 76 1092 115 1092 q 10 1119 38 1092 m 266 1119 q 252 1132 266 1119 q 239 1185 239 1146 q 266 1251 239 1224 q 332 1278 293 1278 q 397 1251 371 1278 q 424 1185 424 1224 q 397 1119 424 1146 q 332 1092 371 1092 q 266 1119 293 1092 z "},"Ð":{"ha":1063,"x_min":90,"x_max":1007,"o":"m 90 436 l 90 565 l 189 565 l 189 972 l 521 972 q 872 838 736 972 q 1007 486 1007 704 q 872 140 1007 279 q 521 0 738 0 l 189 0 l 189 436 l 90 436 m 332 132 l 513 132 q 763 233 668 132 q 858 486 858 333 q 763 740 858 639 q 513 840 667 840 l 332 840 l 332 565 l 597 565 l 597 436 l 332 436 l 332 132 z "},"Ñ":{"ha":1060,"x_min":132,"x_max":928,"o":"m 132 0 l 132 972 l 279 972 l 788 239 l 788 972 l 928 972 l 928 0 l 779 0 l 271 732 l 271 0 l 132 0 m 304 1129 l 329 1176 q 381 1246 353 1222 q 453 1269 408 1269 q 539 1242 489 1269 l 569 1225 q 617 1208 599 1208 q 661 1239 647 1208 l 678 1272 l 768 1226 l 740 1171 q 622 1090 700 1090 q 536 1117 586 1090 l 497 1139 q 460 1151 475 1151 q 418 1122 433 1151 l 396 1081 l 304 1129 z "},"Ò":{"ha":1104,"x_min":56,"x_max":1049,"o":"m 908 131 q 838 59 908 131 q 551 -12 768 -12 q 195 131 335 -12 q 56 486 56 274 q 195 842 56 699 q 551 985 335 985 q 909 842 769 985 q 1049 486 1049 699 q 908 131 1049 274 m 301 742 q 252 690 301 742 q 204 486 204 638 q 301 230 204 335 q 551 125 397 125 q 803 230 706 125 q 900 486 900 335 q 803 742 900 638 q 551 847 706 847 q 301 742 397 847 m 403 1276 l 558 1276 l 644 1067 l 528 1067 l 403 1276 z "},"Ó":{"ha":1104,"x_min":56,"x_max":1049,"o":"m 908 131 q 838 59 908 131 q 551 -12 768 -12 q 195 131 335 -12 q 56 486 56 274 q 195 842 56 699 q 551 985 335 985 q 909 842 769 985 q 1049 486 1049 699 q 908 131 1049 274 m 301 742 q 252 690 301 742 q 204 486 204 638 q 301 230 204 335 q 551 125 397 125 q 803 230 706 125 q 900 486 900 335 q 803 742 900 638 q 551 847 706 847 q 301 742 397 847 m 479 1067 l 565 1276 l 721 1276 l 596 1067 l 479 1067 z "},"Ô":{"ha":1104,"x_min":56,"x_max":1049,"o":"m 908 131 q 838 59 908 131 q 551 -12 768 -12 q 195 131 335 -12 q 56 486 56 274 q 195 842 56 699 q 551 985 335 985 q 909 842 769 985 q 1049 486 1049 699 q 908 131 1049 274 m 301 742 q 252 690 301 742 q 204 486 204 638 q 301 230 204 335 q 551 125 397 125 q 803 230 706 125 q 900 486 900 335 q 803 742 900 638 q 551 847 706 847 q 301 742 397 847 m 344 1067 l 482 1276 l 644 1276 l 782 1067 l 657 1067 l 563 1176 l 468 1067 l 344 1067 z "},"Õ":{"ha":1104,"x_min":56,"x_max":1049,"o":"m 908 131 q 838 59 908 131 q 551 -12 768 -12 q 195 131 335 -12 q 56 486 56 274 q 195 842 56 699 q 551 985 335 985 q 909 842 769 985 q 1049 486 1049 699 q 908 131 1049 274 m 301 742 q 252 690 301 742 q 204 486 204 638 q 301 230 204 335 q 551 125 397 125 q 803 230 706 125 q 900 486 900 335 q 803 742 900 638 q 551 847 706 847 q 301 742 397 847 m 322 1129 l 347 1176 q 399 1246 371 1222 q 471 1269 426 1269 q 557 1242 507 1269 l 588 1225 q 635 1208 617 1208 q 679 1239 665 1208 l 696 1272 l 786 1226 l 758 1171 q 640 1090 718 1090 q 554 1117 604 1090 l 515 1139 q 478 1151 493 1151 q 436 1122 450 1151 l 414 1081 l 322 1129 z "},"Ö":{"ha":1104,"x_min":56,"x_max":1049,"o":"m 908 131 q 838 59 908 131 q 551 -12 768 -12 q 195 131 335 -12 q 56 486 56 274 q 195 842 56 699 q 551 985 335 985 q 909 842 769 985 q 1049 486 1049 699 q 908 131 1049 274 m 301 742 q 252 690 301 742 q 204 486 204 638 q 301 230 204 335 q 551 125 397 125 q 803 230 706 125 q 900 486 900 335 q 803 742 900 638 q 551 847 706 847 q 301 742 397 847 m 366 1119 q 352 1132 366 1119 q 339 1185 339 1146 q 366 1251 339 1224 q 432 1278 393 1278 q 497 1251 471 1278 q 524 1185 524 1224 q 497 1119 524 1146 q 432 1092 471 1092 q 366 1119 393 1092 m 622 1119 q 608 1132 622 1119 q 594 1185 594 1146 q 622 1251 594 1224 q 688 1278 649 1278 q 753 1251 726 1278 q 779 1185 779 1224 q 753 1119 779 1146 q 688 1092 726 1092 q 622 1119 649 1092 z "},"×":{"ha":590,"x_min":7,"x_max":583,"o":"m 92 156 l 7 240 l 210 439 l 7 639 l 92 722 l 296 522 l 500 722 l 583 639 l 381 439 l 583 240 l 500 156 l 296 356 l 92 156 z "},"Ø":{"ha":1104,"x_min":56,"x_max":1049,"o":"m 88 -53 l 207 118 q 56 486 56 263 q 195 842 56 699 q 551 985 335 985 q 779 935 675 985 l 842 1025 l 996 1025 l 883 865 q 1049 486 1049 722 q 908 131 1049 274 q 551 -12 768 -12 q 308 46 417 -12 l 239 -53 l 88 -53 m 204 486 q 292 239 204 342 l 696 818 q 551 847 626 847 q 301 742 397 847 q 204 486 204 638 m 390 163 q 551 125 465 125 q 803 230 706 125 q 900 486 900 335 q 800 746 900 642 l 390 163 z "},"Ù":{"ha":1006,"x_min":118,"x_max":888,"o":"m 501 -12 q 224 95 331 -12 q 118 375 118 203 l 118 972 l 261 972 l 261 374 q 327 192 261 261 q 501 122 393 122 q 678 191 613 122 q 744 374 744 260 l 744 972 l 888 972 l 888 375 q 781 95 888 203 q 501 -12 675 -12 m 351 1276 l 507 1276 l 593 1067 l 476 1067 l 351 1276 z "},"Ú":{"ha":1006,"x_min":118,"x_max":888,"o":"m 501 -12 q 224 95 331 -12 q 118 375 118 203 l 118 972 l 261 972 l 261 374 q 327 192 261 261 q 501 122 393 122 q 678 191 613 122 q 744 374 744 260 l 744 972 l 888 972 l 888 375 q 781 95 888 203 q 501 -12 675 -12 m 428 1067 l 514 1276 l 669 1276 l 544 1067 l 428 1067 z "},"Û":{"ha":1006,"x_min":118,"x_max":888,"o":"m 501 -12 q 224 95 331 -12 q 118 375 118 203 l 118 972 l 261 972 l 261 374 q 327 192 261 261 q 501 122 393 122 q 678 191 613 122 q 744 374 744 260 l 744 972 l 888 972 l 888 375 q 781 95 888 203 q 501 -12 675 -12 m 293 1067 l 431 1276 l 593 1276 l 731 1067 l 606 1067 l 511 1176 l 417 1067 l 293 1067 z "},"Ü":{"ha":1006,"x_min":118,"x_max":888,"o":"m 501 -12 q 224 95 331 -12 q 118 375 118 203 l 118 972 l 261 972 l 261 374 q 327 192 261 261 q 501 122 393 122 q 678 191 613 122 q 744 374 744 260 l 744 972 l 888 972 l 888 375 q 781 95 888 203 q 501 -12 675 -12 m 315 1119 q 301 1132 315 1119 q 288 1185 288 1146 q 315 1251 288 1224 q 381 1278 342 1278 q 446 1251 419 1278 q 472 1185 472 1224 q 446 1119 472 1146 q 381 1092 419 1092 q 315 1119 342 1092 m 570 1119 q 557 1132 570 1119 q 543 1185 543 1146 q 570 1251 543 1224 q 636 1278 597 1278 q 701 1251 675 1278 q 728 1185 728 1224 q 701 1119 728 1146 q 636 1092 675 1092 q 570 1119 597 1092 z "},"Ý":{"ha":901,"x_min":35,"x_max":867,"o":"m 378 0 l 378 399 l 35 972 l 200 972 l 450 540 l 703 972 l 867 972 l 522 399 l 522 0 l 378 0 m 376 1067 l 463 1276 l 618 1276 l 493 1067 l 376 1067 z "},"Þ":{"ha":888,"x_min":132,"x_max":825,"o":"m 132 0 l 132 972 l 275 972 l 275 838 l 497 838 q 735 747 644 838 q 825 531 825 656 q 736 301 825 394 q 497 208 647 208 l 275 208 l 275 0 l 132 0 m 275 342 l 486 342 q 627 394 575 342 q 679 525 679 446 q 626 654 679 601 q 486 707 572 707 l 275 707 l 275 342 z "},"ß":{"ha":840,"x_min":118,"x_max":785,"o":"m 421 -336 q 235 -286 310 -336 l 296 -175 q 417 -207 342 -207 q 581 -139 518 -207 q 643 17 643 -71 q 575 179 643 118 q 403 240 507 240 l 350 240 l 525 589 l 256 589 l 256 0 l 118 0 l 118 1028 l 403 1028 l 403 900 l 256 900 l 256 715 l 731 715 l 539 343 q 710 238 636 324 q 785 17 785 151 q 685 -229 785 -122 q 421 -336 585 -336 z "},"à":{"ha":771,"x_min":64,"x_max":667,"o":"m 317 -14 q 139 49 208 -14 q 69 208 69 111 q 135 365 69 304 q 318 435 200 426 l 529 449 l 529 457 q 481 558 529 513 q 353 603 433 603 q 235 565 279 603 q 174 479 190 528 l 64 535 q 165 671 92 614 q 354 728 238 728 q 583 644 499 728 q 667 451 667 561 l 667 0 l 529 0 l 529 82 q 443 13 501 39 q 317 -14 385 -14 m 208 211 q 243 136 208 164 q 331 108 278 108 q 477 161 422 108 q 532 288 532 214 l 532 332 l 328 318 q 241 288 274 315 q 208 211 208 260 m 218 1019 l 374 1019 l 460 810 l 343 810 l 218 1019 z "},"á":{"ha":771,"x_min":64,"x_max":667,"o":"m 317 -14 q 139 49 208 -14 q 69 208 69 111 q 135 365 69 304 q 318 435 200 426 l 529 449 l 529 457 q 481 558 529 513 q 353 603 433 603 q 235 565 279 603 q 174 479 190 528 l 64 535 q 165 671 92 614 q 354 728 238 728 q 583 644 499 728 q 667 451 667 561 l 667 0 l 529 0 l 529 82 q 443 13 501 39 q 317 -14 385 -14 m 208 211 q 243 136 208 164 q 331 108 278 108 q 477 161 422 108 q 532 288 532 214 l 532 332 l 328 318 q 241 288 274 315 q 208 211 208 260 m 294 810 l 381 1019 l 536 1019 l 411 810 l 294 810 z "},"â":{"ha":771,"x_min":64,"x_max":667,"o":"m 317 -14 q 139 49 208 -14 q 69 208 69 111 q 135 365 69 304 q 318 435 200 426 l 529 449 l 529 457 q 481 558 529 513 q 353 603 433 603 q 235 565 279 603 q 174 479 190 528 l 64 535 q 165 671 92 614 q 354 728 238 728 q 583 644 499 728 q 667 451 667 561 l 667 0 l 529 0 l 529 82 q 443 13 501 39 q 317 -14 385 -14 m 160 810 l 297 1019 l 460 1019 l 597 810 l 472 810 l 378 919 l 283 810 l 160 810 m 208 211 q 243 136 208 164 q 331 108 278 108 q 477 161 422 108 q 532 288 532 214 l 532 332 l 328 318 q 241 288 274 315 q 208 211 208 260 z "},"ã":{"ha":771,"x_min":64,"x_max":667,"o":"m 317 -14 q 139 49 208 -14 q 69 208 69 111 q 135 365 69 304 q 318 435 200 426 l 529 449 l 529 457 q 481 558 529 513 q 353 603 433 603 q 235 565 279 603 q 174 479 190 528 l 64 535 q 165 671 92 614 q 354 728 238 728 q 583 644 499 728 q 667 451 667 561 l 667 0 l 529 0 l 529 82 q 443 13 501 39 q 317 -14 385 -14 m 138 872 l 163 919 q 214 989 186 965 q 286 1013 242 1013 q 372 985 322 1013 l 403 968 q 450 951 432 951 q 494 982 481 951 l 511 1015 l 601 969 l 574 914 q 456 833 533 833 q 369 860 419 833 l 331 882 q 293 894 308 894 q 251 865 267 894 l 229 824 l 138 872 m 208 211 q 243 136 208 164 q 331 108 278 108 q 477 161 422 108 q 532 288 532 214 l 532 332 l 328 318 q 241 288 274 315 q 208 211 208 260 z "},"ä":{"ha":771,"x_min":64,"x_max":667,"o":"m 317 -14 q 139 49 208 -14 q 69 208 69 111 q 135 365 69 304 q 318 435 200 426 l 529 449 l 529 457 q 481 558 529 513 q 353 603 433 603 q 235 565 279 603 q 174 479 190 528 l 64 535 q 165 671 92 614 q 354 728 238 728 q 583 644 499 728 q 667 451 667 561 l 667 0 l 529 0 l 529 82 q 443 13 501 39 q 317 -14 385 -14 m 181 862 q 168 875 181 862 q 154 928 154 889 q 181 994 154 967 q 247 1021 208 1021 q 313 994 286 1021 q 339 928 339 967 q 313 862 339 889 q 247 835 286 835 q 181 862 208 835 m 208 211 q 243 136 208 164 q 331 108 278 108 q 477 161 422 108 q 532 288 532 214 l 532 332 l 328 318 q 241 288 274 315 q 208 211 208 260 m 437 862 q 423 875 437 862 q 410 928 410 889 q 437 994 410 967 q 503 1021 464 1021 q 568 994 542 1021 q 594 928 594 967 q 568 862 594 889 q 503 835 542 835 q 437 862 464 835 z "},"å":{"ha":771,"x_min":64,"x_max":667,"o":"m 317 -14 q 139 49 208 -14 q 69 208 69 111 q 135 365 69 304 q 318 435 200 426 l 529 449 l 529 457 q 481 558 529 513 q 353 603 433 603 q 235 565 279 603 q 174 479 190 528 l 64 535 q 165 671 92 614 q 354 728 238 728 q 583 644 499 728 q 667 451 667 561 l 667 0 l 529 0 l 529 82 q 443 13 501 39 q 317 -14 385 -14 m 208 211 q 243 136 208 164 q 331 108 278 108 q 477 161 422 108 q 532 288 532 214 l 532 332 l 328 318 q 241 288 274 315 q 208 211 208 260 m 261 831 q 238 853 261 831 q 215 942 215 875 q 261 1053 215 1008 q 375 1097 307 1097 q 488 1053 442 1097 q 533 942 533 1008 q 488 831 533 875 q 375 788 442 788 q 261 831 307 788 m 325 990 q 315 981 325 990 q 306 942 306 971 q 325 894 306 913 q 375 875 344 875 q 424 894 406 875 q 443 942 443 914 q 424 990 443 971 q 375 1010 406 1010 q 325 990 344 1010 z "},"æ":{"ha":1285,"x_min":64,"x_max":1229,"o":"m 319 -12 q 142 51 213 -12 q 71 208 71 114 q 136 364 71 301 q 321 435 201 426 l 529 449 l 529 458 q 481 558 529 514 q 353 603 433 603 q 235 566 279 603 q 175 479 192 529 l 64 531 q 163 669 90 610 q 353 728 236 728 q 617 601 532 728 q 888 728 717 728 q 1134 624 1039 728 q 1229 374 1229 521 l 1229 308 l 671 308 q 738 165 678 218 q 889 113 799 113 q 1020 153 967 113 q 1093 249 1074 194 l 1207 186 q 1098 49 1179 111 q 889 -12 1017 -12 q 597 140 693 -12 q 319 -12 521 -12 m 210 213 q 244 138 210 165 q 331 110 279 110 q 477 162 422 110 q 532 289 532 214 l 532 332 l 335 319 q 210 213 210 310 m 672 425 l 1086 425 q 1029 551 1085 496 q 886 606 974 606 q 742 554 800 606 q 672 425 685 503 z "},"ç":{"ha":808,"x_min":56,"x_max":751,"o":"m 413 -307 q 282 -253 331 -307 l 336 -185 q 404 -215 360 -215 q 444 -202 429 -215 q 458 -167 458 -189 q 444 -133 458 -147 q 401 -119 429 -119 l 344 -119 l 361 -7 q 142 113 229 14 q 56 358 56 213 q 162 625 56 522 q 424 728 268 728 q 635 667 551 728 q 751 519 718 606 l 631 457 q 556 558 610 517 q 424 599 503 599 q 260 531 324 599 q 196 358 196 463 q 260 185 196 256 q 424 115 324 115 q 556 156 501 115 q 631 254 610 196 l 751 192 q 645 56 721 115 q 457 -11 569 -3 l 451 -42 q 530 -77 494 -44 q 565 -167 565 -110 q 526 -267 565 -226 q 413 -307 486 -307 z "},"è":{"ha":814,"x_min":56,"x_max":758,"o":"m 418 -12 q 156 93 256 -12 q 56 357 56 199 q 156 622 56 517 q 417 728 256 728 q 664 624 569 728 q 758 374 758 521 l 758 308 l 196 308 q 269 162 208 211 q 418 113 329 113 q 553 152 497 113 q 628 244 610 192 l 735 188 q 625 50 706 113 q 418 -12 544 -12 m 200 425 l 614 425 q 558 551 613 496 q 415 606 503 606 q 275 558 333 606 q 200 425 217 511 m 257 1019 l 413 1019 l 499 810 l 382 810 l 257 1019 z "},"é":{"ha":814,"x_min":56,"x_max":758,"o":"m 418 -12 q 156 93 256 -12 q 56 357 56 199 q 156 622 56 517 q 417 728 256 728 q 664 624 569 728 q 758 374 758 521 l 758 308 l 196 308 q 269 162 208 211 q 418 113 329 113 q 553 152 497 113 q 628 244 610 192 l 735 188 q 625 50 706 113 q 418 -12 544 -12 m 200 425 l 614 425 q 558 551 613 496 q 415 606 503 606 q 275 558 333 606 q 200 425 217 511 m 333 810 l 419 1019 l 575 1019 l 450 810 l 333 810 z "},"ê":{"ha":814,"x_min":56,"x_max":758,"o":"m 418 -12 q 156 93 256 -12 q 56 357 56 199 q 156 622 56 517 q 417 728 256 728 q 664 624 569 728 q 758 374 758 521 l 758 308 l 196 308 q 269 162 208 211 q 418 113 329 113 q 553 152 497 113 q 628 244 610 192 l 735 188 q 625 50 706 113 q 418 -12 544 -12 m 197 810 l 335 1019 l 497 1019 l 635 810 l 510 810 l 415 919 l 321 810 l 197 810 m 200 425 l 614 425 q 558 551 613 496 q 415 606 503 606 q 275 558 333 606 q 200 425 217 511 z "},"ë":{"ha":814,"x_min":56,"x_max":758,"o":"m 418 -12 q 156 93 256 -12 q 56 357 56 199 q 156 622 56 517 q 417 728 256 728 q 664 624 569 728 q 758 374 758 521 l 758 308 l 196 308 q 269 162 208 211 q 418 113 329 113 q 553 152 497 113 q 628 244 610 192 l 735 188 q 625 50 706 113 q 418 -12 544 -12 m 220 862 q 207 875 220 862 q 193 928 193 889 q 220 994 193 967 q 286 1021 247 1021 q 351 994 325 1021 q 378 928 378 967 q 351 862 378 889 q 286 835 325 835 q 220 862 247 835 m 200 425 l 614 425 q 558 551 613 496 q 415 606 503 606 q 275 558 333 606 q 200 425 217 511 m 476 862 q 462 875 476 862 q 449 928 449 889 q 476 994 449 967 q 542 1021 503 1021 q 607 994 581 1021 q 633 928 633 967 q 607 862 633 889 q 542 835 581 835 q 476 862 503 835 z "},"ì":{"ha":346,"x_min":22,"x_max":264,"o":"m 108 0 l 108 715 l 247 715 l 247 0 l 108 0 m 22 1019 l 178 1019 l 264 810 l 147 810 l 22 1019 z "},"í":{"ha":346,"x_min":99,"x_max":340,"o":"m 108 0 l 108 715 l 247 715 l 247 0 l 108 0 m 99 810 l 185 1019 l 340 1019 l 215 810 l 99 810 z "},"î":{"ha":346,"x_min":-37,"x_max":400,"o":"m 108 0 l 108 715 l 247 715 l 247 0 l 108 0 m -37 810 l 100 1019 l 263 1019 l 400 810 l 275 810 l 181 919 l 86 810 l -37 810 z "},"ï":{"ha":346,"x_min":-42,"x_max":399,"o":"m 108 0 l 108 715 l 247 715 l 247 0 l 108 0 m -15 862 q -28 875 -15 862 q -42 928 -42 889 q -15 994 -42 967 q 51 1021 13 1021 q 117 994 90 1021 q 143 928 143 967 q 117 862 143 889 q 51 835 90 835 q -15 862 13 835 m 241 862 q 227 875 241 862 q 214 928 214 889 q 241 994 214 967 q 307 1021 268 1021 q 372 994 346 1021 q 399 928 399 967 q 372 862 399 889 q 307 835 346 835 q 241 862 268 835 z "},"ð":{"ha":836,"x_min":56,"x_max":781,"o":"m 418 -12 q 158 86 260 -12 q 56 340 56 185 q 158 595 56 496 q 418 694 261 694 q 544 675 483 694 q 417 825 496 743 l 272 742 l 222 822 l 344 893 q 164 1028 257 968 l 338 1028 q 450 953 396 994 l 574 1025 l 624 943 l 526 888 q 713 631 646 774 q 781 340 781 489 q 677 87 781 186 q 418 -12 574 -12 m 194 342 q 260 178 194 240 q 418 117 325 117 q 577 178 513 117 q 642 342 642 240 q 577 506 642 444 q 418 568 513 568 q 259 506 324 568 q 194 342 194 444 z "},"ñ":{"ha":836,"x_min":118,"x_max":732,"o":"m 118 0 l 118 715 l 257 715 l 257 626 q 463 728 321 728 q 656 650 581 728 q 732 456 732 572 l 732 0 l 593 0 l 593 422 q 546 550 593 503 q 425 597 499 597 q 305 549 353 597 q 257 422 257 500 l 257 0 l 118 0 m 204 872 l 229 919 q 281 989 253 965 q 353 1013 308 1013 q 439 985 389 1013 l 469 968 q 517 951 499 951 q 561 982 547 951 l 578 1015 l 668 969 l 640 914 q 522 833 600 833 q 436 860 486 833 l 397 882 q 360 894 375 894 q 318 865 333 894 l 296 824 l 204 872 z "},"ò":{"ha":864,"x_min":56,"x_max":808,"o":"m 702 92 q 649 40 702 92 q 432 -12 596 -12 q 162 92 268 -12 q 56 357 56 196 q 162 623 56 518 q 432 728 268 728 q 702 623 596 728 q 808 357 808 518 q 702 92 808 197 m 263 531 q 230 497 263 531 q 196 357 196 463 q 264 183 196 251 q 432 115 332 115 q 601 183 533 115 q 668 357 668 251 q 601 531 668 463 q 432 599 533 599 q 263 531 331 599 m 276 1019 l 432 1019 l 518 810 l 401 810 l 276 1019 z "},"ó":{"ha":864,"x_min":56,"x_max":808,"o":"m 702 92 q 649 40 702 92 q 432 -12 596 -12 q 162 92 268 -12 q 56 357 56 196 q 162 623 56 518 q 432 728 268 728 q 702 623 596 728 q 808 357 808 518 q 702 92 808 197 m 263 531 q 230 497 263 531 q 196 357 196 463 q 264 183 196 251 q 432 115 332 115 q 601 183 533 115 q 668 357 668 251 q 601 531 668 463 q 432 599 533 599 q 263 531 331 599 m 353 810 l 439 1019 l 594 1019 l 469 810 l 353 810 z "},"ô":{"ha":864,"x_min":56,"x_max":808,"o":"m 702 92 q 649 40 702 92 q 432 -12 596 -12 q 162 92 268 -12 q 56 357 56 196 q 162 623 56 518 q 432 728 268 728 q 702 623 596 728 q 808 357 808 518 q 702 92 808 197 m 263 531 q 230 497 263 531 q 196 357 196 463 q 264 183 196 251 q 432 115 332 115 q 601 183 533 115 q 668 357 668 251 q 601 531 668 463 q 432 599 533 599 q 263 531 331 599 m 217 810 l 354 1019 l 517 1019 l 654 810 l 529 810 l 435 919 l 340 810 l 217 810 z "},"õ":{"ha":864,"x_min":56,"x_max":808,"o":"m 702 92 q 649 40 702 92 q 432 -12 596 -12 q 162 92 268 -12 q 56 357 56 196 q 162 623 56 518 q 432 728 268 728 q 702 623 596 728 q 808 357 808 518 q 702 92 808 197 m 194 872 l 219 919 q 271 989 243 965 q 343 1013 299 1013 q 429 985 379 1013 l 460 968 q 507 951 489 951 q 551 982 538 951 l 568 1015 l 658 969 l 631 914 q 513 833 590 833 q 426 860 476 833 l 388 882 q 350 894 365 894 q 308 865 322 894 l 286 824 l 194 872 m 263 531 q 230 497 263 531 q 196 357 196 463 q 264 183 196 251 q 432 115 332 115 q 601 183 533 115 q 668 357 668 251 q 601 531 668 463 q 432 599 533 599 q 263 531 331 599 z "},"ö":{"ha":864,"x_min":56,"x_max":808,"o":"m 702 92 q 649 40 702 92 q 432 -12 596 -12 q 162 92 268 -12 q 56 357 56 196 q 162 623 56 518 q 432 728 268 728 q 702 623 596 728 q 808 357 808 518 q 702 92 808 197 m 263 531 q 230 497 263 531 q 196 357 196 463 q 264 183 196 251 q 432 115 332 115 q 601 183 533 115 q 668 357 668 251 q 601 531 668 463 q 432 599 533 599 q 263 531 331 599 m 240 862 q 226 875 240 862 q 213 928 213 889 q 240 994 213 967 q 306 1021 267 1021 q 371 994 344 1021 q 397 928 397 967 q 371 862 397 889 q 306 835 344 835 q 240 862 267 835 m 495 862 q 482 875 495 862 q 468 928 468 889 q 495 994 468 967 q 561 1021 522 1021 q 626 994 600 1021 q 653 928 653 967 q 626 862 653 889 q 561 835 600 835 q 495 862 522 835 z "},"÷":{"ha":675,"x_min":7,"x_max":668,"o":"m 7 378 l 7 492 l 668 492 l 668 378 l 7 378 m 272 133 q 257 147 272 133 q 243 200 243 161 q 272 267 243 239 q 339 294 300 294 q 406 267 378 294 q 433 200 433 239 q 406 132 433 160 q 339 104 378 104 q 272 133 300 104 m 243 671 q 272 738 243 710 q 339 765 300 765 q 406 738 378 765 q 433 671 433 710 q 406 603 433 631 q 339 575 378 575 q 272 603 300 575 q 243 671 243 631 z "},"ø":{"ha":864,"x_min":56,"x_max":808,"o":"m 76 -53 l 171 83 q 56 357 56 188 q 162 623 56 518 q 432 728 268 728 q 597 693 521 728 l 646 763 l 788 763 l 694 629 q 808 357 808 524 q 702 92 808 197 q 432 -12 596 -12 q 269 19 342 -12 l 218 -53 l 76 -53 m 196 357 q 251 197 196 264 l 521 583 q 432 599 478 599 q 263 531 331 599 q 196 357 196 463 m 346 131 q 432 115 388 115 q 601 183 533 115 q 668 357 668 251 q 614 515 668 450 l 346 131 z "},"ù":{"ha":831,"x_min":104,"x_max":768,"o":"m 381 -12 q 181 66 258 -12 q 104 263 104 144 l 104 715 l 243 715 l 243 293 q 290 165 243 213 q 410 118 338 118 q 531 167 483 118 q 579 293 579 215 l 579 715 l 718 715 l 718 143 l 768 0 l 619 0 l 592 75 q 510 13 565 39 q 381 -12 456 -12 m 263 1019 l 418 1019 l 504 810 l 388 810 l 263 1019 z "},"ú":{"ha":831,"x_min":104,"x_max":768,"o":"m 381 -12 q 181 66 258 -12 q 104 263 104 144 l 104 715 l 243 715 l 243 293 q 290 165 243 213 q 410 118 338 118 q 531 167 483 118 q 579 293 579 215 l 579 715 l 718 715 l 718 143 l 768 0 l 619 0 l 592 75 q 510 13 565 39 q 381 -12 456 -12 m 339 810 l 425 1019 l 581 1019 l 456 810 l 339 810 z "},"û":{"ha":831,"x_min":104,"x_max":768,"o":"m 381 -12 q 181 66 258 -12 q 104 263 104 144 l 104 715 l 243 715 l 243 293 q 290 165 243 213 q 410 118 338 118 q 531 167 483 118 q 579 293 579 215 l 579 715 l 718 715 l 718 143 l 768 0 l 619 0 l 592 75 q 510 13 565 39 q 381 -12 456 -12 m 204 810 l 342 1019 l 504 1019 l 642 810 l 517 810 l 422 919 l 328 810 l 204 810 z "},"ü":{"ha":831,"x_min":104,"x_max":768,"o":"m 381 -12 q 181 66 258 -12 q 104 263 104 144 l 104 715 l 243 715 l 243 293 q 290 165 243 213 q 410 118 338 118 q 531 167 483 118 q 579 293 579 215 l 579 715 l 718 715 l 718 143 l 768 0 l 619 0 l 592 75 q 510 13 565 39 q 381 -12 456 -12 m 226 862 q 212 875 226 862 q 199 928 199 889 q 226 994 199 967 q 292 1021 253 1021 q 357 994 331 1021 q 383 928 383 967 q 357 862 383 889 q 292 835 331 835 q 226 862 253 835 m 481 862 q 468 875 481 862 q 454 928 454 889 q 481 994 454 967 q 547 1021 508 1021 q 613 994 586 1021 q 639 928 639 967 q 613 862 639 889 q 547 835 586 835 q 481 862 508 835 z "},"ý":{"ha":808,"x_min":26,"x_max":782,"o":"m 190 -318 l 329 6 l 26 715 l 182 715 l 407 167 l 622 715 l 782 715 l 346 -318 l 190 -318 m 332 810 l 418 1019 l 574 1019 l 449 810 l 332 810 z "},"þ":{"ha":900,"x_min":118,"x_max":844,"o":"m 118 -318 l 118 1028 l 257 1028 l 257 624 q 358 699 292 669 q 496 728 425 728 q 745 627 646 728 q 844 357 844 526 q 744 92 844 197 q 496 -12 644 -12 q 355 17 421 -12 q 257 94 289 47 l 257 -318 l 118 -318 m 316 528 q 285 493 316 528 q 254 357 254 458 q 316 186 254 256 q 479 117 378 117 q 642 186 581 117 q 704 357 704 256 q 642 529 704 460 q 479 599 581 599 q 316 528 378 599 z "},"ÿ":{"ha":808,"x_min":26,"x_max":782,"o":"m 190 -318 l 329 6 l 26 715 l 182 715 l 407 167 l 622 715 l 782 715 l 346 -318 l 190 -318 m 219 862 q 205 875 219 862 q 192 928 192 889 q 219 994 192 967 q 285 1021 246 1021 q 350 994 324 1021 q 376 928 376 967 q 350 862 376 889 q 285 835 324 835 q 219 862 246 835 m 474 862 q 461 875 474 862 q 447 928 447 889 q 474 994 447 967 q 540 1021 501 1021 q 606 994 579 1021 q 632 928 632 967 q 606 862 632 889 q 540 835 579 835 q 474 862 501 835 z "},"Ā":{"ha":947,"x_min":35,"x_max":913,"o":"m 35 0 l 379 972 l 569 972 l 913 0 l 761 0 l 671 260 l 274 260 l 183 0 l 35 0 m 281 1115 l 281 1236 l 671 1236 l 671 1115 l 281 1115 m 321 394 l 624 394 l 472 832 l 321 394 z "},"ā":{"ha":771,"x_min":64,"x_max":667,"o":"m 317 -14 q 139 49 208 -14 q 69 208 69 111 q 135 365 69 304 q 318 435 200 426 l 529 449 l 529 457 q 481 558 529 513 q 353 603 433 603 q 235 565 279 603 q 174 479 190 528 l 64 535 q 165 671 92 614 q 354 728 238 728 q 583 644 499 728 q 667 451 667 561 l 667 0 l 529 0 l 529 82 q 443 13 501 39 q 317 -14 385 -14 m 182 858 l 182 979 l 572 979 l 572 858 l 182 858 m 208 211 q 243 136 208 164 q 331 108 278 108 q 477 161 422 108 q 532 288 532 214 l 532 332 l 328 318 q 241 288 274 315 q 208 211 208 260 z "},"Ă":{"ha":947,"x_min":35,"x_max":913,"o":"m 35 0 l 379 972 l 569 972 l 913 0 l 761 0 l 671 260 l 274 260 l 183 0 l 35 0 m 265 1272 l 376 1272 q 401 1202 376 1231 q 472 1174 425 1174 q 543 1202 519 1174 q 567 1272 567 1231 l 678 1272 q 624 1121 678 1178 q 472 1064 571 1064 q 320 1121 375 1064 q 265 1272 265 1178 m 321 394 l 624 394 l 472 832 l 321 394 z "},"ă":{"ha":771,"x_min":64,"x_max":667,"o":"m 317 -14 q 139 49 208 -14 q 69 208 69 111 q 135 365 69 304 q 318 435 200 426 l 529 449 l 529 457 q 481 558 529 513 q 353 603 433 603 q 235 565 279 603 q 174 479 190 528 l 64 535 q 165 671 92 614 q 354 728 238 728 q 583 644 499 728 q 667 451 667 561 l 667 0 l 529 0 l 529 82 q 443 13 501 39 q 317 -14 385 -14 m 168 1015 l 279 1015 q 303 945 279 974 q 375 917 328 917 q 446 945 422 917 q 469 1015 469 974 l 581 1015 q 527 864 581 921 q 375 807 474 807 q 223 864 278 807 q 168 1015 168 921 m 208 211 q 243 136 208 164 q 331 108 278 108 q 477 161 422 108 q 532 288 532 214 l 532 332 l 328 318 q 241 288 274 315 q 208 211 208 260 z "},"Ą":{"ha":947,"x_min":35,"x_max":928,"o":"m 35 0 l 379 972 l 569 972 l 913 0 q 821 -48 857 -15 q 785 -126 785 -81 q 806 -177 785 -158 q 853 -196 826 -196 q 896 -187 876 -196 l 928 -283 q 824 -307 881 -307 q 705 -264 751 -307 q 658 -151 658 -221 q 760 4 658 -47 l 671 260 l 274 260 l 183 0 l 35 0 m 321 394 l 624 394 l 472 832 l 321 394 z "},"ą":{"ha":771,"x_min":64,"x_max":682,"o":"m 317 -14 q 139 49 208 -14 q 69 208 69 111 q 135 365 69 304 q 318 435 200 426 l 529 449 l 529 457 q 481 558 529 513 q 353 603 433 603 q 235 565 279 603 q 174 479 190 528 l 64 535 q 165 671 92 614 q 354 728 238 728 q 583 644 499 728 q 667 451 667 561 l 667 0 q 575 -48 611 -15 q 539 -126 539 -81 q 560 -177 539 -158 q 607 -196 581 -196 q 650 -187 631 -196 l 682 -283 q 578 -307 635 -307 q 459 -264 506 -307 q 413 -151 413 -221 q 446 -51 413 -93 q 529 11 479 -10 l 529 82 q 443 13 501 39 q 317 -14 385 -14 m 208 211 q 243 136 208 164 q 331 108 278 108 q 477 161 422 108 q 532 288 532 214 l 532 332 l 328 318 q 241 288 274 315 q 208 211 208 260 z "},"Ć":{"ha":1040,"x_min":56,"x_max":985,"o":"m 544 -12 q 193 131 331 -12 q 56 486 56 274 q 193 842 56 699 q 544 985 331 985 q 810 911 696 985 q 981 711 924 838 l 851 642 q 732 788 813 733 q 544 843 651 843 q 299 740 393 843 q 204 486 204 638 q 299 232 204 335 q 544 129 393 129 q 738 188 656 129 q 857 343 819 246 l 985 275 q 816 65 932 143 q 544 -12 700 -12 m 463 1067 l 549 1276 l 704 1276 l 579 1067 l 463 1067 z "},"ć":{"ha":808,"x_min":56,"x_max":751,"o":"m 424 -12 q 163 91 269 -12 q 56 358 56 194 q 162 625 56 522 q 424 728 268 728 q 635 667 551 728 q 751 519 718 606 l 631 457 q 556 558 610 517 q 424 599 503 599 q 260 531 324 599 q 196 358 196 463 q 260 185 196 256 q 424 115 324 115 q 556 156 501 115 q 631 254 610 196 l 751 192 q 633 48 718 108 q 424 -12 549 -12 m 338 810 l 424 1019 l 579 1019 l 454 810 l 338 810 z "},"Ĉ":{"ha":1040,"x_min":56,"x_max":985,"o":"m 544 -12 q 193 131 331 -12 q 56 486 56 274 q 193 842 56 699 q 544 985 331 985 q 810 911 696 985 q 981 711 924 838 l 851 642 q 732 788 813 733 q 544 843 651 843 q 299 740 393 843 q 204 486 204 638 q 299 232 204 335 q 544 129 393 129 q 738 188 656 129 q 857 343 819 246 l 985 275 q 816 65 932 143 q 544 -12 700 -12 m 326 1067 l 464 1276 l 626 1276 l 764 1067 l 639 1067 l 544 1176 l 450 1067 l 326 1067 z "},"ĉ":{"ha":808,"x_min":56,"x_max":751,"o":"m 424 -12 q 163 91 269 -12 q 56 358 56 194 q 162 625 56 522 q 424 728 268 728 q 635 667 551 728 q 751 519 718 606 l 631 457 q 556 558 610 517 q 424 599 503 599 q 260 531 324 599 q 196 358 196 463 q 260 185 196 256 q 424 115 324 115 q 556 156 501 115 q 631 254 610 196 l 751 192 q 633 48 718 108 q 424 -12 549 -12 m 201 810 l 339 1019 l 501 1019 l 639 810 l 514 810 l 419 919 l 325 810 l 201 810 z "},"Ċ":{"ha":1040,"x_min":56,"x_max":985,"o":"m 544 -12 q 193 131 331 -12 q 56 486 56 274 q 193 842 56 699 q 544 985 331 985 q 810 911 696 985 q 981 711 924 838 l 851 642 q 732 788 813 733 q 544 843 651 843 q 299 740 393 843 q 204 486 204 638 q 299 232 204 335 q 544 129 393 129 q 738 188 656 129 q 857 343 819 246 l 985 275 q 816 65 932 143 q 544 -12 700 -12 m 469 1092 q 454 1106 469 1092 q 439 1164 439 1121 q 468 1236 439 1207 q 542 1265 497 1265 q 614 1236 585 1265 q 643 1164 643 1207 q 614 1092 643 1121 q 542 1063 585 1063 q 469 1092 499 1063 z "},"ċ":{"ha":808,"x_min":56,"x_max":751,"o":"m 424 -12 q 163 91 269 -12 q 56 358 56 194 q 162 625 56 522 q 424 728 268 728 q 635 667 551 728 q 751 519 718 606 l 631 457 q 556 558 610 517 q 424 599 503 599 q 260 531 324 599 q 196 358 196 463 q 260 185 196 256 q 424 115 324 115 q 556 156 501 115 q 631 254 610 196 l 751 192 q 633 48 718 108 q 424 -12 549 -12 m 344 835 q 329 849 344 835 q 314 907 314 864 q 343 979 314 950 q 417 1008 372 1008 q 489 979 460 1008 q 518 907 518 950 q 489 835 518 864 q 417 806 460 806 q 344 835 374 806 z "},"Č":{"ha":1040,"x_min":56,"x_max":985,"o":"m 544 -12 q 193 131 331 -12 q 56 486 56 274 q 193 842 56 699 q 544 985 331 985 q 810 911 696 985 q 981 711 924 838 l 851 642 q 732 788 813 733 q 544 843 651 843 q 299 740 393 843 q 204 486 204 638 q 299 232 204 335 q 544 129 393 129 q 738 188 656 129 q 857 343 819 246 l 985 275 q 816 65 932 143 q 544 -12 700 -12 m 322 1278 l 447 1278 l 542 1168 l 636 1278 l 760 1278 l 622 1068 l 460 1068 l 322 1278 z "},"č":{"ha":808,"x_min":56,"x_max":751,"o":"m 424 -12 q 163 91 269 -12 q 56 358 56 194 q 162 625 56 522 q 424 728 268 728 q 635 667 551 728 q 751 519 718 606 l 631 457 q 556 558 610 517 q 424 599 503 599 q 260 531 324 599 q 196 358 196 463 q 260 185 196 256 q 424 115 324 115 q 556 156 501 115 q 631 254 610 196 l 751 192 q 633 48 718 108 q 424 -12 549 -12 m 197 1019 l 322 1019 l 417 910 l 511 1019 l 635 1019 l 497 810 l 335 810 l 197 1019 z "},"Ď":{"ha":1006,"x_min":132,"x_max":950,"o":"m 132 0 l 132 972 l 464 972 q 815 838 679 972 q 950 486 950 704 q 815 140 950 279 q 464 0 681 0 l 132 0 m 254 1278 l 379 1278 l 474 1168 l 568 1278 l 692 1278 l 554 1068 l 392 1068 l 254 1278 m 275 132 l 456 132 q 706 233 611 132 q 801 486 801 333 q 706 740 801 639 q 456 840 610 840 l 275 840 l 275 132 z "},"ď":{"ha":868,"x_min":56,"x_max":1000,"o":"m 406 -12 q 155 88 254 -12 q 56 358 56 189 q 156 623 56 518 q 406 728 256 728 q 545 697 479 728 q 643 621 611 667 l 643 1028 l 782 1028 l 782 0 l 643 0 l 643 90 q 543 17 610 46 q 406 -12 476 -12 m 196 358 q 258 185 196 256 q 421 115 319 115 q 584 185 522 115 q 646 358 646 256 q 584 529 646 460 q 421 599 522 599 q 258 529 319 599 q 196 358 196 460 m 854 754 l 869 1028 l 1000 1028 l 978 754 l 854 754 z "},"Đ":{"ha":1063,"x_min":90,"x_max":1007,"o":"m 90 436 l 90 565 l 189 565 l 189 972 l 521 972 q 872 838 736 972 q 1007 486 1007 704 q 872 140 1007 279 q 521 0 738 0 l 189 0 l 189 436 l 90 436 m 332 132 l 513 132 q 763 233 668 132 q 858 486 858 333 q 763 740 858 639 q 513 840 667 840 l 332 840 l 332 565 l 597 565 l 597 436 l 332 436 l 332 132 z "},"đ":{"ha":835,"x_min":56,"x_max":890,"o":"m 426 826 l 426 931 l 643 931 l 643 1028 l 782 1028 l 782 931 l 890 931 l 890 826 l 782 826 l 782 0 l 643 0 l 643 90 q 543 17 610 46 q 406 -12 476 -12 q 155 88 254 -12 q 56 358 56 189 q 156 623 56 518 q 406 728 256 728 q 545 697 479 728 q 643 621 611 667 l 643 826 l 426 826 m 196 358 q 258 185 196 256 q 421 115 319 115 q 584 185 522 115 q 646 358 646 256 q 584 529 646 460 q 421 599 522 599 q 258 529 319 599 q 196 358 196 460 z "},"Ē":{"ha":847,"x_min":132,"x_max":771,"o":"m 132 0 l 132 972 l 771 972 l 771 840 l 275 840 l 275 567 l 728 567 l 728 436 l 275 436 l 275 132 l 771 132 l 771 0 l 132 0 m 268 1115 l 268 1236 l 658 1236 l 658 1115 l 268 1115 z "},"ē":{"ha":814,"x_min":56,"x_max":758,"o":"m 418 -12 q 156 93 256 -12 q 56 357 56 199 q 156 622 56 517 q 417 728 256 728 q 664 624 569 728 q 758 374 758 521 l 758 308 l 196 308 q 269 162 208 211 q 418 113 329 113 q 553 152 497 113 q 628 244 610 192 l 735 188 q 625 50 706 113 q 418 -12 544 -12 m 200 425 l 614 425 q 558 551 613 496 q 415 606 503 606 q 275 558 333 606 q 200 425 217 511 m 221 858 l 221 979 l 611 979 l 611 858 l 221 858 z "},"Ĕ":{"ha":847,"x_min":132,"x_max":771,"o":"m 132 0 l 132 972 l 771 972 l 771 840 l 275 840 l 275 567 l 728 567 l 728 436 l 275 436 l 275 132 l 771 132 l 771 0 l 132 0 m 253 1272 l 364 1272 q 388 1202 364 1231 q 460 1174 413 1174 q 531 1202 507 1174 q 554 1272 554 1231 l 665 1272 q 612 1121 665 1178 q 460 1064 558 1064 q 308 1121 363 1064 q 253 1272 253 1178 z "},"ĕ":{"ha":814,"x_min":56,"x_max":758,"o":"m 418 -12 q 156 93 256 -12 q 56 357 56 199 q 156 622 56 517 q 417 728 256 728 q 664 624 569 728 q 758 374 758 521 l 758 308 l 196 308 q 269 162 208 211 q 418 113 329 113 q 553 152 497 113 q 628 244 610 192 l 735 188 q 625 50 706 113 q 418 -12 544 -12 m 200 425 l 614 425 q 558 551 613 496 q 415 606 503 606 q 275 558 333 606 q 200 425 217 511 m 206 1015 l 317 1015 q 341 945 317 974 q 413 917 365 917 q 483 945 460 917 q 507 1015 507 974 l 618 1015 q 565 864 618 921 q 413 807 511 807 q 260 864 315 807 q 206 1015 206 921 z "},"Ė":{"ha":847,"x_min":132,"x_max":771,"o":"m 132 0 l 132 972 l 771 972 l 771 840 l 275 840 l 275 567 l 728 567 l 728 436 l 275 436 l 275 132 l 771 132 l 771 0 l 132 0 m 387 1092 q 372 1106 387 1092 q 357 1164 357 1121 q 386 1236 357 1207 q 460 1265 415 1265 q 532 1236 503 1265 q 561 1164 561 1207 q 532 1092 561 1121 q 460 1063 503 1063 q 387 1092 417 1063 z "},"ė":{"ha":814,"x_min":56,"x_max":758,"o":"m 418 -12 q 156 93 256 -12 q 56 357 56 199 q 156 622 56 517 q 417 728 256 728 q 664 624 569 728 q 758 374 758 521 l 758 308 l 196 308 q 269 162 208 211 q 418 113 329 113 q 553 152 497 113 q 628 244 610 192 l 735 188 q 625 50 706 113 q 418 -12 544 -12 m 200 425 l 614 425 q 558 551 613 496 q 415 606 503 606 q 275 558 333 606 q 200 425 217 511 m 340 835 q 325 849 340 835 q 310 907 310 864 q 339 979 310 950 q 413 1008 368 1008 q 485 979 456 1008 q 514 907 514 950 q 485 835 514 864 q 413 806 456 806 q 340 835 369 806 z "},"Ę":{"ha":847,"x_min":132,"x_max":786,"o":"m 132 0 l 132 972 l 771 972 l 771 840 l 275 840 l 275 567 l 728 567 l 728 436 l 275 436 l 275 132 l 771 132 l 771 0 q 679 -48 715 -15 q 643 -126 643 -81 q 664 -177 643 -158 q 711 -196 685 -196 q 754 -187 735 -196 l 786 -283 q 682 -307 739 -307 q 563 -264 610 -307 q 517 -151 517 -221 q 611 0 517 -51 l 132 0 z "},"ę":{"ha":814,"x_min":56,"x_max":758,"o":"m 418 113 q 553 152 497 113 q 628 244 610 192 l 735 188 q 658 76 713 131 q 518 0 603 22 q 426 -48 463 -15 q 390 -126 390 -81 q 411 -177 390 -158 q 458 -196 432 -196 q 501 -187 482 -196 l 533 -283 q 429 -307 486 -307 q 310 -264 357 -307 q 264 -151 264 -221 q 347 -7 264 -60 q 135 117 214 17 q 56 357 56 217 q 156 622 56 517 q 417 728 256 728 q 664 624 569 728 q 758 374 758 521 l 758 308 l 196 308 q 269 162 208 211 q 418 113 329 113 m 200 425 l 614 425 q 558 551 613 496 q 415 606 503 606 q 275 558 333 606 q 200 425 217 511 z "},"Ě":{"ha":847,"x_min":132,"x_max":771,"o":"m 132 0 l 132 972 l 771 972 l 771 840 l 275 840 l 275 567 l 728 567 l 728 436 l 275 436 l 275 132 l 771 132 l 771 0 l 132 0 m 240 1278 l 365 1278 l 460 1168 l 554 1278 l 678 1278 l 540 1068 l 378 1068 l 240 1278 z "},"ě":{"ha":814,"x_min":56,"x_max":758,"o":"m 418 -12 q 156 93 256 -12 q 56 357 56 199 q 156 622 56 517 q 417 728 256 728 q 664 624 569 728 q 758 374 758 521 l 758 308 l 196 308 q 269 162 208 211 q 418 113 329 113 q 553 152 497 113 q 628 244 610 192 l 735 188 q 625 50 706 113 q 418 -12 544 -12 m 193 1019 l 318 1019 l 413 910 l 507 1019 l 631 1019 l 493 810 l 331 810 l 193 1019 m 200 425 l 614 425 q 558 551 613 496 q 415 606 503 606 q 275 558 333 606 q 200 425 217 511 z "},"Ĝ":{"ha":1099,"x_min":56,"x_max":994,"o":"m 858 128 q 536 -12 746 -12 q 191 131 326 -12 q 56 486 56 274 q 192 842 56 700 q 542 985 328 985 q 799 917 690 985 q 960 738 908 850 l 828 669 q 718 797 790 750 q 542 843 646 843 q 297 739 390 843 q 204 486 204 635 q 297 233 204 338 q 542 129 390 129 q 758 199 667 129 q 857 389 849 268 l 550 389 l 550 522 l 994 522 l 994 0 l 858 0 l 858 128 m 329 1067 l 467 1276 l 629 1276 l 767 1067 l 642 1067 l 547 1176 l 453 1067 l 329 1067 z "},"ĝ":{"ha":883,"x_min":56,"x_max":779,"o":"m 421 -199 q 581 -142 521 -199 q 640 0 640 -86 l 640 96 q 542 21 607 50 q 403 -8 478 -8 q 155 94 254 -8 q 56 358 56 197 q 155 627 56 526 q 403 728 254 728 q 540 698 475 728 q 640 622 606 668 l 640 715 l 779 715 l 779 7 q 681 -233 779 -135 q 421 -331 583 -331 q 208 -268 293 -331 q 92 -121 124 -206 l 210 -60 q 286 -159 231 -119 q 421 -199 342 -199 m 196 358 q 257 188 196 257 q 419 119 318 119 q 581 188 519 119 q 643 358 643 257 q 581 529 643 460 q 419 599 519 599 q 257 530 318 599 q 196 358 196 461 m 204 810 l 342 1019 l 504 1019 l 642 810 l 517 810 l 422 919 l 328 810 l 204 810 z "},"Ğ":{"ha":1099,"x_min":56,"x_max":994,"o":"m 858 128 q 536 -12 746 -12 q 191 131 326 -12 q 56 486 56 274 q 192 842 56 700 q 542 985 328 985 q 799 917 690 985 q 960 738 908 850 l 828 669 q 718 797 790 750 q 542 843 646 843 q 297 739 390 843 q 204 486 204 635 q 297 233 204 338 q 542 129 390 129 q 758 199 667 129 q 857 389 849 268 l 550 389 l 550 522 l 994 522 l 994 0 l 858 0 l 858 128 m 338 1272 l 449 1272 q 473 1202 449 1231 q 544 1174 497 1174 q 615 1202 592 1174 q 639 1272 639 1231 l 750 1272 q 697 1121 750 1178 q 544 1064 643 1064 q 392 1121 447 1064 q 338 1272 338 1178 z "},"ğ":{"ha":883,"x_min":56,"x_max":779,"o":"m 421 -199 q 581 -142 521 -199 q 640 0 640 -86 l 640 96 q 542 21 607 50 q 403 -8 478 -8 q 155 94 254 -8 q 56 358 56 197 q 155 627 56 526 q 403 728 254 728 q 540 698 475 728 q 640 622 606 668 l 640 715 l 779 715 l 779 7 q 681 -233 779 -135 q 421 -331 583 -331 q 208 -268 293 -331 q 92 -121 124 -206 l 210 -60 q 286 -159 231 -119 q 421 -199 342 -199 m 196 358 q 257 188 196 257 q 419 119 318 119 q 581 188 519 119 q 643 358 643 257 q 581 529 643 460 q 419 599 519 599 q 257 530 318 599 q 196 358 196 461 m 213 1015 l 324 1015 q 348 945 324 974 q 419 917 372 917 q 490 945 467 917 q 514 1015 514 974 l 625 1015 q 572 864 625 921 q 419 807 518 807 q 267 864 322 807 q 213 1015 213 921 z "},"Ġ":{"ha":1099,"x_min":56,"x_max":994,"o":"m 858 128 q 536 -12 746 -12 q 191 131 326 -12 q 56 486 56 274 q 192 842 56 700 q 542 985 328 985 q 799 917 690 985 q 960 738 908 850 l 828 669 q 718 797 790 750 q 542 843 646 843 q 297 739 390 843 q 204 486 204 635 q 297 233 204 338 q 542 129 390 129 q 758 199 667 129 q 857 389 849 268 l 550 389 l 550 522 l 994 522 l 994 0 l 858 0 l 858 128 m 472 1092 q 457 1106 472 1092 q 442 1164 442 1121 q 471 1236 442 1207 q 544 1265 500 1265 q 617 1236 588 1265 q 646 1164 646 1207 q 617 1092 646 1121 q 544 1063 588 1063 q 472 1092 501 1063 z "},"ġ":{"ha":883,"x_min":56,"x_max":779,"o":"m 421 -199 q 581 -142 521 -199 q 640 0 640 -86 l 640 96 q 542 21 607 50 q 403 -8 478 -8 q 155 94 254 -8 q 56 358 56 197 q 155 627 56 526 q 403 728 254 728 q 540 698 475 728 q 640 622 606 668 l 640 715 l 779 715 l 779 7 q 681 -233 779 -135 q 421 -331 583 -331 q 208 -268 293 -331 q 92 -121 124 -206 l 210 -60 q 286 -159 231 -119 q 421 -199 342 -199 m 196 358 q 257 188 196 257 q 419 119 318 119 q 581 188 519 119 q 643 358 643 257 q 581 529 643 460 q 419 599 519 599 q 257 530 318 599 q 196 358 196 461 m 347 835 q 332 849 347 835 q 317 907 317 864 q 346 979 317 950 q 419 1008 375 1008 q 492 979 463 1008 q 521 907 521 950 q 492 835 521 864 q 419 806 463 806 q 347 835 376 806 z "},"Ģ":{"ha":1099,"x_min":56,"x_max":994,"o":"m 858 128 q 536 -12 746 -12 q 191 131 326 -12 q 56 486 56 274 q 192 842 56 700 q 542 985 328 985 q 799 917 690 985 q 960 738 908 850 l 828 669 q 718 797 790 750 q 542 843 646 843 q 297 739 390 843 q 204 486 204 635 q 297 233 204 338 q 542 129 390 129 q 758 199 667 129 q 857 389 849 268 l 550 389 l 550 522 l 994 522 l 994 0 l 858 0 l 858 128 m 436 -328 l 479 -183 l 479 -67 l 604 -67 l 604 -189 l 560 -328 l 436 -328 z "},"ģ":{"ha":883,"x_min":56,"x_max":779,"o":"m 421 -199 q 581 -142 521 -199 q 640 0 640 -86 l 640 96 q 542 21 607 50 q 403 -8 478 -8 q 155 94 254 -8 q 56 358 56 197 q 155 627 56 526 q 403 728 254 728 q 540 698 475 728 q 640 622 606 668 l 640 715 l 779 715 l 779 7 q 681 -233 779 -135 q 421 -331 583 -331 q 208 -268 293 -331 q 92 -121 124 -206 l 210 -60 q 286 -159 231 -119 q 421 -199 342 -199 m 196 358 q 257 188 196 257 q 419 119 318 119 q 581 188 519 119 q 643 358 643 257 q 581 529 643 460 q 419 599 519 599 q 257 530 318 599 q 196 358 196 461 m 357 801 l 357 924 l 401 1063 l 525 1063 l 482 918 l 482 801 l 357 801 z "},"Ĥ":{"ha":1049,"x_min":132,"x_max":917,"o":"m 774 0 l 774 435 l 275 435 l 275 0 l 132 0 l 132 972 l 275 972 l 275 569 l 774 569 l 774 972 l 917 972 l 917 0 l 774 0 m 310 1067 l 447 1276 l 610 1276 l 747 1067 l 622 1067 l 528 1176 l 433 1067 l 310 1067 z "},"ĥ":{"ha":836,"x_min":-28,"x_max":732,"o":"m 118 0 l 118 1028 l 257 1028 l 257 626 q 465 728 324 728 q 658 650 583 728 q 732 456 732 572 l 732 0 l 593 0 l 593 422 q 546 550 593 503 q 425 597 499 597 q 305 549 353 597 q 257 422 257 500 l 257 0 l 118 0 m -28 1082 l 110 1292 l 272 1292 l 410 1082 l 285 1082 l 190 1192 l 96 1082 l -28 1082 z "},"Ħ":{"ha":1050,"x_min":44,"x_max":1006,"o":"m 44 726 l 44 843 l 132 843 l 132 972 l 275 972 l 275 843 l 774 843 l 774 972 l 917 972 l 917 843 l 1006 843 l 1006 726 l 917 726 l 917 0 l 774 0 l 774 435 l 275 435 l 275 0 l 132 0 l 132 726 l 44 726 m 275 569 l 774 569 l 774 726 l 275 726 l 275 569 z "},"ħ":{"ha":838,"x_min":28,"x_max":733,"o":"m 28 826 l 28 931 l 119 931 l 119 1028 l 258 1028 l 258 931 l 471 931 l 471 826 l 258 826 l 258 626 q 467 728 325 728 q 659 650 585 728 q 733 456 733 572 l 733 0 l 594 0 l 594 422 q 547 550 594 503 q 426 597 500 597 q 306 549 354 597 q 258 422 258 500 l 258 0 l 119 0 l 119 826 l 28 826 z "},"Ĩ":{"ha":408,"x_min":-33,"x_max":431,"o":"m 132 0 l 132 972 l 276 972 l 276 0 l 132 0 m -33 1129 l -8 1176 q 43 1246 15 1222 q 115 1269 71 1269 q 201 1242 151 1269 l 232 1225 q 279 1208 261 1208 q 324 1239 310 1208 l 340 1272 l 431 1226 l 403 1171 q 285 1090 363 1090 q 199 1117 249 1090 l 160 1139 q 122 1151 138 1151 q 81 1122 94 1151 l 58 1081 l -33 1129 z "},"ĩ":{"ha":346,"x_min":-60,"x_max":404,"o":"m 108 0 l 108 715 l 247 715 l 247 0 l 108 0 m -60 872 l -35 919 q 17 989 -11 965 q 89 1013 44 1013 q 175 985 125 1013 l 206 968 q 253 951 235 951 q 297 982 283 951 l 314 1015 l 404 969 l 376 914 q 258 833 336 833 q 172 860 222 833 l 133 882 q 96 894 111 894 q 54 865 69 894 l 32 824 l -60 872 z "},"Ī":{"ha":408,"x_min":11,"x_max":401,"o":"m 132 0 l 132 972 l 276 972 l 276 0 l 132 0 m 11 1115 l 11 1236 l 401 1236 l 401 1115 l 11 1115 z "},"ī":{"ha":346,"x_min":-14,"x_max":376,"o":"m 108 0 l 108 715 l 247 715 l 247 0 l 108 0 m -14 858 l -14 979 l 376 979 l 376 858 l -14 858 z "},"Ĭ":{"ha":408,"x_min":-3,"x_max":410,"o":"m 132 0 l 132 972 l 276 972 l 276 0 l 132 0 m -3 1272 l 108 1272 q 133 1202 108 1231 q 204 1174 157 1174 q 275 1202 251 1174 q 299 1272 299 1231 l 410 1272 q 356 1121 410 1178 q 204 1064 303 1064 q 52 1121 107 1064 q -3 1272 -3 1178 z "},"ĭ":{"ha":346,"x_min":-29,"x_max":383,"o":"m 108 0 l 108 715 l 247 715 l 247 0 l 108 0 m -29 1015 l 82 1015 q 106 945 82 974 q 178 917 131 917 q 249 945 225 917 q 272 1015 272 974 l 383 1015 q 330 864 383 921 q 178 807 276 807 q 26 864 81 807 q -29 1015 -29 921 z "},"Į":{"ha":408,"x_min":21,"x_max":290,"o":"m 186 -307 q 67 -264 114 -307 q 21 -151 21 -221 q 52 -53 21 -94 q 132 8 83 -12 l 132 972 l 276 972 l 276 0 l 275 0 q 183 -48 219 -15 q 147 -126 147 -81 q 168 -177 147 -158 q 215 -196 189 -196 q 258 -187 239 -196 l 290 -283 q 186 -307 243 -307 z "},"į":{"ha":346,"x_min":-7,"x_max":279,"o":"m 250 835 q 235 820 250 835 q 178 806 221 806 q 105 835 135 806 q 75 907 75 864 q 104 979 75 950 q 178 1008 133 1008 q 250 979 221 1008 q 279 907 279 950 q 250 835 279 864 m -7 -151 q 26 -53 -7 -94 q 108 10 58 -11 l 108 715 l 247 715 l 247 0 q 156 -48 192 -15 q 119 -126 119 -81 q 140 -177 119 -158 q 188 -196 161 -196 q 231 -187 211 -196 l 263 -283 q 158 -307 215 -307 q 40 -264 86 -307 q -7 -151 -7 -221 z "},"İ":{"ha":408,"x_min":101,"x_max":306,"o":"m 132 0 l 132 972 l 276 972 l 276 0 l 132 0 m 131 1092 q 116 1106 131 1092 q 101 1164 101 1121 q 131 1236 101 1207 q 204 1265 160 1265 q 276 1236 247 1265 q 306 1164 306 1207 q 276 1092 306 1121 q 204 1063 247 1063 q 131 1092 161 1063 z "},"ı":{"ha":346,"x_min":108,"x_max":247,"o":"m 108 0 l 108 715 l 247 715 l 247 0 l 108 0 z "},"Ĳ":{"ha":1264,"x_min":132,"x_max":1146,"o":"m 132 0 l 132 972 l 276 972 l 276 0 l 132 0 m 450 224 l 572 290 q 646 177 589 226 q 790 128 703 128 q 945 185 889 128 q 1001 331 1001 243 l 1001 839 l 651 839 l 651 972 l 1146 972 l 1146 331 q 1047 85 1146 182 q 790 -12 949 -12 q 569 56 653 -12 q 450 224 486 125 z "},"ĳ":{"ha":742,"x_min":83,"x_max":672,"o":"m 115 0 l 115 715 l 254 715 l 254 0 l 115 0 m 113 863 q 98 877 113 863 q 83 935 83 892 q 113 1007 83 978 q 185 1036 142 1036 q 257 1007 228 1036 q 286 935 286 978 q 257 863 286 892 q 185 833 228 833 q 113 863 142 833 m 356 -322 l 356 -158 l 499 -61 l 500 715 l 639 715 l 639 -140 l 356 -322 m 499 863 q 484 877 499 863 q 469 935 469 892 q 499 1007 469 978 q 571 1036 528 1036 q 643 1007 614 1036 q 672 935 672 978 q 643 863 672 892 q 571 833 614 833 q 499 863 528 833 z "},"Ĵ":{"ha":856,"x_min":42,"x_max":738,"o":"m 382 -12 q 161 56 244 -12 q 42 224 78 125 l 164 290 q 238 177 181 226 q 382 128 294 128 q 537 185 481 128 q 593 331 593 243 l 593 839 l 243 839 l 243 972 l 738 972 l 738 331 q 639 85 738 182 q 382 -12 540 -12 m 274 1067 l 411 1276 l 574 1276 l 711 1067 l 586 1067 l 492 1176 l 397 1067 l 274 1067 z "},"ĵ":{"ha":372,"x_min":-18,"x_max":419,"o":"m -14 -322 l -14 -158 l 129 -61 l 131 715 l 269 715 l 269 -140 l -14 -322 m -18 804 l 119 1014 l 282 1014 l 419 804 l 294 804 l 200 914 l 106 804 l -18 804 z "},"Ķ":{"ha":897,"x_min":132,"x_max":869,"o":"m 703 0 l 404 435 l 274 435 l 274 0 l 132 0 l 132 972 l 274 972 l 274 572 l 396 572 l 690 972 l 857 972 l 518 513 l 869 0 l 703 0 m 376 -328 l 419 -183 l 419 -67 l 544 -67 l 544 -189 l 500 -328 l 376 -328 z "},"ķ":{"ha":750,"x_min":118,"x_max":729,"o":"m 118 0 l 118 1028 l 257 1028 l 257 472 l 371 472 l 557 715 l 722 715 l 483 400 l 729 0 l 567 0 l 356 339 l 257 339 l 257 0 l 118 0 m 294 -328 l 338 -183 l 338 -67 l 463 -67 l 463 -189 l 418 -328 l 294 -328 z "},"ĸ":{"ha":750,"x_min":118,"x_max":729,"o":"m 118 0 l 118 715 l 257 715 l 257 458 l 371 458 l 558 715 l 721 715 l 483 386 l 729 0 l 567 0 l 357 324 l 257 324 l 257 0 l 118 0 z "},"Ĺ":{"ha":765,"x_min":119,"x_max":736,"o":"m 132 0 l 132 972 l 275 972 l 275 131 l 736 131 l 736 0 l 132 0 m 119 1067 l 206 1276 l 361 1276 l 236 1067 l 119 1067 z "},"ĺ":{"ha":347,"x_min":94,"x_max":336,"o":"m 104 0 l 104 1028 l 243 1028 l 243 0 l 104 0 m 94 1082 l 181 1292 l 336 1292 l 211 1082 l 94 1082 z "},"Ļ":{"ha":765,"x_min":132,"x_max":736,"o":"m 132 0 l 132 972 l 275 972 l 275 131 l 736 131 l 736 0 l 132 0 m 346 -328 l 389 -183 l 389 -67 l 514 -67 l 514 -189 l 469 -328 l 346 -328 z "},"ļ":{"ha":347,"x_min":67,"x_max":243,"o":"m 104 0 l 104 1028 l 243 1028 l 243 0 l 104 0 m 67 -328 l 110 -183 l 110 -67 l 235 -67 l 235 -189 l 190 -328 l 67 -328 z "},"Ľ":{"ha":765,"x_min":132,"x_max":736,"o":"m 132 0 l 132 972 l 275 972 l 275 131 l 736 131 l 736 0 l 132 0 m 532 699 l 547 972 l 678 972 l 656 699 l 532 699 z "},"ľ":{"ha":399,"x_min":104,"x_max":468,"o":"m 104 0 l 104 1028 l 243 1028 l 243 0 l 104 0 m 322 754 l 338 1028 l 468 1028 l 446 754 l 322 754 z "},"Ŀ":{"ha":765,"x_min":132,"x_max":736,"o":"m 132 0 l 132 972 l 275 972 l 275 131 l 736 131 l 736 0 l 132 0 m 507 469 q 492 484 507 469 q 478 542 478 499 q 507 614 478 585 q 579 643 536 643 q 651 614 622 643 q 681 542 681 585 q 651 469 681 499 q 579 440 622 440 q 507 469 536 440 z "},"ŀ":{"ha":561,"x_min":118,"x_max":547,"o":"m 118 0 l 118 1028 l 257 1028 l 257 0 l 118 0 m 374 456 q 359 470 374 456 q 344 528 344 485 q 374 600 344 571 q 446 629 403 629 q 518 600 489 629 q 547 528 547 571 q 518 456 547 485 q 446 426 489 426 q 374 456 403 426 z "},"Ł":{"ha":804,"x_min":72,"x_max":774,"o":"m 72 369 l 72 497 l 169 532 l 169 972 l 313 972 l 313 582 l 604 686 l 604 557 l 313 454 l 313 131 l 774 131 l 774 0 l 169 0 l 169 404 l 72 369 z "},"ł":{"ha":482,"x_min":42,"x_max":433,"o":"m 42 428 l 42 563 l 161 619 l 161 1028 l 300 1028 l 300 685 l 433 749 l 433 611 l 300 549 l 300 0 l 161 0 l 161 483 l 42 428 z "},"Ń":{"ha":1060,"x_min":132,"x_max":928,"o":"m 132 0 l 132 972 l 279 972 l 788 239 l 788 972 l 928 972 l 928 0 l 779 0 l 271 732 l 271 0 l 132 0 m 461 1067 l 547 1276 l 703 1276 l 578 1067 l 461 1067 z "},"ń":{"ha":836,"x_min":118,"x_max":732,"o":"m 118 0 l 118 715 l 257 715 l 257 626 q 463 728 321 728 q 656 650 581 728 q 732 456 732 572 l 732 0 l 593 0 l 593 422 q 546 550 593 503 q 425 597 499 597 q 305 549 353 597 q 257 422 257 500 l 257 0 l 118 0 m 363 810 l 449 1019 l 604 1019 l 479 810 l 363 810 z "},"Ņ":{"ha":1060,"x_min":132,"x_max":928,"o":"m 132 0 l 132 972 l 279 972 l 788 239 l 788 972 l 928 972 l 928 0 l 779 0 l 271 732 l 271 0 l 132 0 m 428 -328 l 471 -183 l 471 -67 l 596 -67 l 596 -189 l 551 -328 l 428 -328 z "},"ņ":{"ha":836,"x_min":118,"x_max":732,"o":"m 118 0 l 118 715 l 257 715 l 257 626 q 463 728 321 728 q 656 650 581 728 q 732 456 732 572 l 732 0 l 593 0 l 593 422 q 546 550 593 503 q 425 597 499 597 q 305 549 353 597 q 257 422 257 500 l 257 0 l 118 0 m 321 -328 l 364 -183 l 364 -67 l 489 -67 l 489 -189 l 444 -328 l 321 -328 z "},"Ň":{"ha":1060,"x_min":132,"x_max":928,"o":"m 132 0 l 132 972 l 279 972 l 788 239 l 788 972 l 928 972 l 928 0 l 779 0 l 271 732 l 271 0 l 132 0 m 321 1278 l 446 1278 l 540 1168 l 635 1278 l 758 1278 l 621 1068 l 458 1068 l 321 1278 z "},"ň":{"ha":836,"x_min":118,"x_max":732,"o":"m 118 0 l 118 715 l 257 715 l 257 626 q 463 728 321 728 q 656 650 581 728 q 732 456 732 572 l 732 0 l 593 0 l 593 422 q 546 550 593 503 q 425 597 499 597 q 305 549 353 597 q 257 422 257 500 l 257 0 l 118 0 m 222 1021 l 347 1021 l 442 911 l 536 1021 l 660 1021 l 522 811 l 360 811 l 222 1021 z "},"ŉ":{"ha":836,"x_min":-82,"x_max":732,"o":"m 118 0 l 118 715 l 257 715 l 257 626 q 463 728 321 728 q 656 650 581 728 q 732 456 732 572 l 732 0 l 593 0 l 593 422 q 546 550 593 503 q 425 597 499 597 q 305 549 353 597 q 257 422 257 500 l 257 0 l 118 0 m -82 676 l -26 853 l -26 994 l 108 994 l 108 847 l 51 676 l -82 676 z "},"Ŋ":{"ha":1060,"x_min":132,"x_max":928,"o":"m 619 -194 q 744 -149 701 -194 q 786 -29 786 -104 l 786 1 l 271 732 l 271 0 l 132 0 l 132 972 l 279 972 l 788 251 l 788 972 l 928 972 l 928 -28 q 847 -249 928 -167 q 619 -332 767 -332 l 619 -194 z "},"ŋ":{"ha":836,"x_min":118,"x_max":732,"o":"m 449 -322 l 449 -158 l 593 -61 l 593 422 q 546 550 593 503 q 425 597 499 597 q 305 549 353 597 q 257 422 257 500 l 257 0 l 118 0 l 118 715 l 257 715 l 257 626 q 463 728 321 728 q 656 650 581 728 q 732 456 732 572 l 732 -140 l 449 -322 z "},"Ō":{"ha":1104,"x_min":56,"x_max":1049,"o":"m 908 131 q 838 59 908 131 q 551 -12 768 -12 q 195 131 335 -12 q 56 486 56 274 q 195 842 56 699 q 551 985 335 985 q 909 842 769 985 q 1049 486 1049 699 q 908 131 1049 274 m 301 742 q 252 690 301 742 q 204 486 204 638 q 301 230 204 335 q 551 125 397 125 q 803 230 706 125 q 900 486 900 335 q 803 742 900 638 q 551 847 706 847 q 301 742 397 847 m 367 1115 l 367 1236 l 757 1236 l 757 1115 l 367 1115 z "},"ō":{"ha":864,"x_min":56,"x_max":808,"o":"m 702 92 q 649 40 702 92 q 432 -12 596 -12 q 162 92 268 -12 q 56 357 56 196 q 162 623 56 518 q 432 728 268 728 q 702 623 596 728 q 808 357 808 518 q 702 92 808 197 m 263 531 q 230 497 263 531 q 196 357 196 463 q 264 183 196 251 q 432 115 332 115 q 601 183 533 115 q 668 357 668 251 q 601 531 668 463 q 432 599 533 599 q 263 531 331 599 m 240 858 l 240 979 l 631 979 l 631 858 l 240 858 z "},"Ŏ":{"ha":1104,"x_min":56,"x_max":1049,"o":"m 908 131 q 838 59 908 131 q 551 -12 768 -12 q 195 131 335 -12 q 56 486 56 274 q 195 842 56 699 q 551 985 335 985 q 909 842 769 985 q 1049 486 1049 699 q 908 131 1049 274 m 301 742 q 252 690 301 742 q 204 486 204 638 q 301 230 204 335 q 551 125 397 125 q 803 230 706 125 q 900 486 900 335 q 803 742 900 638 q 551 847 706 847 q 301 742 397 847 m 353 1272 l 464 1272 q 488 1202 464 1231 q 560 1174 513 1174 q 631 1202 607 1174 q 654 1272 654 1231 l 765 1272 q 712 1121 765 1178 q 560 1064 658 1064 q 408 1121 463 1064 q 353 1272 353 1178 z "},"ŏ":{"ha":864,"x_min":56,"x_max":808,"o":"m 702 92 q 649 40 702 92 q 432 -12 596 -12 q 162 92 268 -12 q 56 357 56 196 q 162 623 56 518 q 432 728 268 728 q 702 623 596 728 q 808 357 808 518 q 702 92 808 197 m 263 531 q 230 497 263 531 q 196 357 196 463 q 264 183 196 251 q 432 115 332 115 q 601 183 533 115 q 668 357 668 251 q 601 531 668 463 q 432 599 533 599 q 263 531 331 599 m 225 1015 l 336 1015 q 360 945 336 974 q 432 917 385 917 q 503 945 479 917 q 526 1015 526 974 l 638 1015 q 584 864 638 921 q 432 807 531 807 q 280 864 335 807 q 225 1015 225 921 z "},"Ő":{"ha":1104,"x_min":56,"x_max":1049,"o":"m 908 131 q 838 59 908 131 q 551 -12 768 -12 q 195 131 335 -12 q 56 486 56 274 q 195 842 56 699 q 551 985 335 985 q 909 842 769 985 q 1049 486 1049 699 q 908 131 1049 274 m 301 742 q 252 690 301 742 q 204 486 204 638 q 301 230 204 335 q 551 125 397 125 q 803 230 706 125 q 900 486 900 335 q 803 742 900 638 q 551 847 706 847 q 301 742 397 847 m 392 1067 l 457 1276 l 613 1276 l 494 1067 l 392 1067 m 596 1067 l 660 1276 l 815 1276 l 699 1067 l 596 1067 z "},"ő":{"ha":864,"x_min":56,"x_max":808,"o":"m 702 92 q 649 40 702 92 q 432 -12 596 -12 q 162 92 268 -12 q 56 357 56 196 q 162 623 56 518 q 432 728 268 728 q 702 623 596 728 q 808 357 808 518 q 702 92 808 197 m 263 531 q 230 497 263 531 q 196 357 196 463 q 264 183 196 251 q 432 115 332 115 q 601 183 533 115 q 668 357 668 251 q 601 531 668 463 q 432 599 533 599 q 263 531 331 599 m 265 810 l 331 1019 l 486 1019 l 368 810 l 265 810 m 469 810 l 533 1019 l 689 1019 l 572 810 l 469 810 z "},"Œ":{"ha":1550,"x_min":56,"x_max":1474,"o":"m 551 -12 q 195 131 335 -12 q 56 486 56 274 q 195 842 56 699 q 551 985 335 985 q 669 972 614 985 l 1474 972 l 1474 842 l 908 842 q 1043 567 1019 731 l 1431 567 l 1431 436 l 1046 436 q 907 129 1031 253 l 1474 129 l 1474 0 l 669 0 q 551 -12 614 -12 m 301 742 q 252 690 301 742 q 204 486 204 638 q 301 230 204 335 q 551 125 397 125 q 803 230 706 125 q 900 486 900 335 q 803 742 900 638 q 551 847 706 847 q 301 742 397 847 z "},"œ":{"ha":1426,"x_min":56,"x_max":1371,"o":"m 432 -12 q 162 92 268 -12 q 56 357 56 196 q 162 623 56 518 q 432 728 268 728 q 736 583 628 728 q 1029 728 838 728 q 1276 624 1182 728 q 1371 374 1371 521 l 1371 308 l 808 308 q 881 162 821 211 q 1031 113 942 113 q 1166 152 1110 113 q 1240 244 1222 192 l 1347 188 q 1238 50 1318 113 q 1031 -12 1157 -12 q 736 132 838 -12 q 432 -12 628 -12 m 263 531 q 230 497 263 531 q 196 357 196 463 q 264 183 196 251 q 432 115 332 115 q 601 183 533 115 q 668 357 668 251 q 601 531 668 463 q 432 599 533 599 q 263 531 331 599 m 813 425 l 1226 425 q 1170 551 1225 496 q 1028 606 1115 606 q 888 558 946 606 q 813 425 829 511 z "},"Ŕ":{"ha":925,"x_min":132,"x_max":863,"o":"m 132 0 l 132 972 l 517 972 q 750 887 661 972 q 839 676 839 801 q 783 500 839 575 q 636 393 728 425 l 863 129 l 863 0 l 717 0 l 717 92 l 476 374 l 274 374 l 274 0 l 132 0 m 274 504 l 515 504 q 643 553 594 504 q 692 675 692 601 q 642 794 692 746 q 515 842 593 842 l 274 842 l 274 504 m 379 1067 l 465 1276 l 621 1276 l 496 1067 l 379 1067 z "},"ŕ":{"ha":569,"x_min":118,"x_max":528,"o":"m 118 0 l 118 715 l 257 715 l 257 588 l 528 731 l 528 581 l 257 446 l 257 0 l 118 0 m 274 810 l 360 1019 l 515 1019 l 390 810 l 274 810 z "},"Ŗ":{"ha":925,"x_min":132,"x_max":863,"o":"m 132 0 l 132 972 l 517 972 q 750 887 661 972 q 839 676 839 801 q 783 500 839 575 q 636 393 728 425 l 863 129 l 863 0 l 717 0 l 717 92 l 476 374 l 274 374 l 274 0 l 132 0 m 274 504 l 515 504 q 643 553 594 504 q 692 675 692 601 q 642 794 692 746 q 515 842 593 842 l 274 842 l 274 504 m 388 -328 l 431 -183 l 431 -67 l 556 -67 l 556 -189 l 511 -328 l 388 -328 z "},"ŗ":{"ha":569,"x_min":82,"x_max":528,"o":"m 118 0 l 118 715 l 257 715 l 257 588 l 528 731 l 528 581 l 257 446 l 257 0 l 118 0 m 82 -328 l 125 -183 l 125 -67 l 250 -67 l 250 -189 l 206 -328 l 82 -328 z "},"Ř":{"ha":925,"x_min":132,"x_max":863,"o":"m 132 0 l 132 972 l 517 972 q 750 887 661 972 q 839 676 839 801 q 783 500 839 575 q 636 393 728 425 l 863 129 l 863 0 l 717 0 l 717 92 l 476 374 l 274 374 l 274 0 l 132 0 m 240 1278 l 365 1278 l 460 1168 l 554 1278 l 678 1278 l 540 1068 l 378 1068 l 240 1278 m 274 504 l 515 504 q 643 553 594 504 q 692 675 692 601 q 642 794 692 746 q 515 842 593 842 l 274 842 l 274 504 z "},"ř":{"ha":569,"x_min":118,"x_max":572,"o":"m 118 0 l 118 715 l 257 715 l 257 588 l 528 731 l 528 581 l 257 446 l 257 0 l 118 0 m 135 1019 l 260 1019 l 354 910 l 449 1019 l 572 1019 l 435 810 l 272 810 l 135 1019 z "},"Ś":{"ha":882,"x_min":69,"x_max":813,"o":"m 449 122 q 611 165 558 122 q 664 269 664 207 q 522 406 664 371 l 369 443 q 121 710 121 503 q 215 909 121 833 q 454 985 310 985 q 685 919 596 985 q 803 763 774 853 l 676 696 q 605 804 663 756 q 454 853 547 853 q 318 815 369 853 q 267 713 267 776 q 401 582 267 614 l 561 544 q 749 444 686 514 q 813 272 813 374 q 716 69 813 150 q 446 -12 619 -12 q 200 57 297 -12 q 69 219 103 126 l 193 289 q 283 169 214 217 q 449 122 353 122 m 379 1067 l 465 1276 l 621 1276 l 496 1067 l 379 1067 z "},"ś":{"ha":714,"x_min":56,"x_max":654,"o":"m 361 -12 q 158 46 236 -12 q 56 181 81 104 l 172 239 q 237 151 186 190 q 364 111 288 111 q 473 136 433 111 q 513 201 513 161 q 422 286 513 268 l 283 313 q 145 381 196 331 q 94 515 94 431 q 171 668 94 608 q 367 728 247 728 q 556 675 488 728 q 647 551 624 622 l 532 496 q 478 574 522 540 q 365 607 435 607 q 266 582 303 607 q 229 518 229 557 q 314 438 229 454 l 460 408 q 604 336 554 390 q 654 206 654 282 q 574 48 654 108 q 361 -12 493 -12 m 278 810 l 364 1019 l 519 1019 l 394 810 l 278 810 z "},"Ŝ":{"ha":882,"x_min":69,"x_max":813,"o":"m 449 122 q 611 165 558 122 q 664 269 664 207 q 522 406 664 371 l 369 443 q 121 710 121 503 q 215 909 121 833 q 454 985 310 985 q 685 919 596 985 q 803 763 774 853 l 676 696 q 605 804 663 756 q 454 853 547 853 q 318 815 369 853 q 267 713 267 776 q 401 582 267 614 l 561 544 q 749 444 686 514 q 813 272 813 374 q 716 69 813 150 q 446 -12 619 -12 q 200 57 297 -12 q 69 219 103 126 l 193 289 q 283 169 214 217 q 449 122 353 122 m 243 1067 l 381 1276 l 543 1276 l 681 1067 l 556 1067 l 461 1176 l 367 1067 l 243 1067 z "},"ŝ":{"ha":714,"x_min":56,"x_max":654,"o":"m 361 -12 q 158 46 236 -12 q 56 181 81 104 l 172 239 q 237 151 186 190 q 364 111 288 111 q 473 136 433 111 q 513 201 513 161 q 422 286 513 268 l 283 313 q 145 381 196 331 q 94 515 94 431 q 171 668 94 608 q 367 728 247 728 q 556 675 488 728 q 647 551 624 622 l 532 496 q 478 574 522 540 q 365 607 435 607 q 266 582 303 607 q 229 518 229 557 q 314 438 229 454 l 460 408 q 604 336 554 390 q 654 206 654 282 q 574 48 654 108 q 361 -12 493 -12 m 143 810 l 281 1019 l 443 1019 l 581 810 l 456 810 l 361 919 l 267 810 l 143 810 z "},"Ş":{"ha":882,"x_min":69,"x_max":813,"o":"m 449 122 q 611 165 558 122 q 664 269 664 207 q 522 406 664 371 l 369 443 q 121 710 121 503 q 215 909 121 833 q 454 985 310 985 q 685 919 596 985 q 803 763 774 853 l 676 696 q 605 804 663 756 q 454 853 547 853 q 318 815 369 853 q 267 713 267 776 q 401 582 267 614 l 561 544 q 749 444 686 514 q 813 272 813 374 q 726 77 813 157 q 482 -11 639 -3 l 476 -42 q 555 -77 519 -44 q 590 -167 590 -110 q 551 -267 590 -226 q 438 -307 511 -307 q 307 -253 356 -307 l 361 -185 q 429 -215 385 -215 q 469 -202 454 -215 q 483 -167 483 -189 q 469 -133 483 -147 q 426 -119 454 -119 l 369 -119 l 386 -10 q 181 71 263 4 q 69 219 99 138 l 193 289 q 283 169 214 217 q 449 122 353 122 z "},"ş":{"ha":714,"x_min":56,"x_max":654,"o":"m 351 -307 q 221 -253 269 -307 l 275 -185 q 343 -215 299 -215 q 383 -202 368 -215 q 397 -167 397 -189 q 383 -133 397 -147 q 340 -119 368 -119 l 283 -119 l 300 -8 q 140 60 201 6 q 56 181 78 114 l 172 239 q 237 151 186 190 q 364 111 288 111 q 473 136 433 111 q 513 201 513 161 q 422 286 513 268 l 283 313 q 145 381 196 331 q 94 515 94 431 q 171 668 94 608 q 367 728 247 728 q 556 675 488 728 q 647 551 624 622 l 532 496 q 478 574 522 540 q 365 607 435 607 q 266 582 303 607 q 229 518 229 557 q 314 438 229 454 l 460 408 q 604 336 554 390 q 654 206 654 282 q 584 56 654 115 q 396 -11 514 -3 l 390 -42 q 469 -77 433 -44 q 504 -167 504 -110 q 465 -267 504 -226 q 351 -307 425 -307 z "},"Š":{"ha":882,"x_min":69,"x_max":813,"o":"m 449 122 q 611 165 558 122 q 664 269 664 207 q 522 406 664 371 l 369 443 q 121 710 121 503 q 215 909 121 833 q 454 985 310 985 q 685 919 596 985 q 803 763 774 853 l 676 696 q 605 804 663 756 q 454 853 547 853 q 318 815 369 853 q 267 713 267 776 q 401 582 267 614 l 561 544 q 749 444 686 514 q 813 272 813 374 q 716 69 813 150 q 446 -12 619 -12 q 200 57 297 -12 q 69 219 103 126 l 193 289 q 283 169 214 217 q 449 122 353 122 m 239 1278 l 364 1278 l 458 1168 l 553 1278 l 676 1278 l 539 1068 l 376 1068 l 239 1278 z "},"š":{"ha":714,"x_min":56,"x_max":654,"o":"m 361 -12 q 158 46 236 -12 q 56 181 81 104 l 172 239 q 237 151 186 190 q 364 111 288 111 q 473 136 433 111 q 513 201 513 161 q 422 286 513 268 l 283 313 q 145 381 196 331 q 94 515 94 431 q 171 668 94 608 q 367 728 247 728 q 556 675 488 728 q 647 551 624 622 l 532 496 q 478 574 522 540 q 365 607 435 607 q 266 582 303 607 q 229 518 229 557 q 314 438 229 454 l 460 408 q 604 336 554 390 q 654 206 654 282 q 574 48 654 108 q 361 -12 493 -12 m 139 1019 l 264 1019 l 358 910 l 453 1019 l 576 1019 l 439 810 l 276 810 l 139 1019 z "},"Ţ":{"ha":857,"x_min":44,"x_max":813,"o":"m 356 0 l 356 839 l 44 839 l 44 972 l 813 972 l 813 839 l 501 839 l 501 0 l 472 0 l 464 -42 q 542 -77 507 -44 q 578 -167 578 -110 q 538 -267 578 -226 q 425 -307 499 -307 q 294 -253 343 -307 l 349 -185 q 417 -215 372 -215 q 456 -202 442 -215 q 471 -167 471 -189 q 456 -133 471 -147 q 414 -119 442 -119 l 357 -119 l 375 0 l 356 0 z "},"ţ":{"ha":556,"x_min":38,"x_max":492,"o":"m 165 0 l 165 593 l 38 593 l 38 715 l 169 715 l 169 900 l 304 900 l 304 715 l 489 715 l 489 593 l 304 593 l 304 131 l 492 131 l 492 0 l 374 0 l 365 -42 q 444 -77 408 -44 q 479 -167 479 -110 q 440 -267 479 -226 q 326 -307 400 -307 q 196 -253 244 -307 l 250 -185 q 318 -215 274 -215 q 358 -202 343 -215 q 372 -167 372 -189 q 358 -133 372 -147 q 315 -119 343 -119 l 258 -119 l 276 0 l 165 0 z "},"Ť":{"ha":857,"x_min":44,"x_max":813,"o":"m 356 0 l 356 839 l 44 839 l 44 972 l 813 972 l 813 839 l 501 839 l 501 0 l 356 0 m 214 1278 l 339 1278 l 433 1168 l 528 1278 l 651 1278 l 514 1068 l 351 1068 l 214 1278 z "},"ť":{"ha":529,"x_min":38,"x_max":526,"o":"m 165 0 l 165 593 l 38 593 l 38 715 l 169 715 l 169 900 l 304 900 l 304 715 l 489 715 l 489 593 l 304 593 l 304 131 l 492 131 l 492 0 l 165 0 m 381 790 l 396 1064 l 526 1064 l 504 790 l 381 790 z "},"Ŧ":{"ha":857,"x_min":44,"x_max":813,"o":"m 111 465 l 111 588 l 356 588 l 356 839 l 44 839 l 44 972 l 813 972 l 813 839 l 501 839 l 501 588 l 739 588 l 739 465 l 501 465 l 501 0 l 356 0 l 356 465 l 111 465 z "},"ŧ":{"ha":558,"x_min":40,"x_max":494,"o":"m 49 363 l 49 478 l 168 478 l 168 593 l 40 593 l 40 715 l 172 715 l 172 900 l 307 900 l 307 715 l 492 715 l 492 593 l 307 593 l 307 478 l 488 478 l 488 363 l 307 363 l 307 131 l 494 131 l 494 0 l 168 0 l 168 363 l 49 363 z "},"Ũ":{"ha":1006,"x_min":118,"x_max":888,"o":"m 501 -12 q 224 95 331 -12 q 118 375 118 203 l 118 972 l 261 972 l 261 374 q 327 192 261 261 q 501 122 393 122 q 678 191 613 122 q 744 374 744 260 l 744 972 l 888 972 l 888 375 q 781 95 888 203 q 501 -12 675 -12 m 271 1129 l 296 1176 q 347 1246 319 1222 q 419 1269 375 1269 q 506 1242 456 1269 l 536 1225 q 583 1208 565 1208 q 628 1239 614 1208 l 644 1272 l 735 1226 l 707 1171 q 589 1090 667 1090 q 503 1117 553 1090 l 464 1139 q 426 1151 442 1151 q 385 1122 400 1151 l 363 1081 l 271 1129 z "},"ũ":{"ha":831,"x_min":104,"x_max":768,"o":"m 381 -12 q 181 66 258 -12 q 104 263 104 144 l 104 715 l 243 715 l 243 293 q 290 165 243 213 q 410 118 338 118 q 531 167 483 118 q 579 293 579 215 l 579 715 l 718 715 l 718 143 l 768 0 l 619 0 l 592 75 q 510 13 565 39 q 381 -12 456 -12 m 182 872 l 207 919 q 258 989 231 965 q 331 1013 286 1013 q 417 985 367 1013 l 447 968 q 494 951 476 951 q 539 982 525 951 l 556 1015 l 646 969 l 618 914 q 500 833 578 833 q 414 860 464 833 l 375 882 q 338 894 353 894 q 296 865 311 894 l 274 824 l 182 872 z "},"Ū":{"ha":1006,"x_min":118,"x_max":888,"o":"m 501 -12 q 224 95 331 -12 q 118 375 118 203 l 118 972 l 261 972 l 261 374 q 327 192 261 261 q 501 122 393 122 q 678 191 613 122 q 744 374 744 260 l 744 972 l 888 972 l 888 375 q 781 95 888 203 q 501 -12 675 -12 m 315 1115 l 315 1236 l 706 1236 l 706 1115 l 315 1115 z "},"ū":{"ha":831,"x_min":104,"x_max":768,"o":"m 381 -12 q 181 66 258 -12 q 104 263 104 144 l 104 715 l 243 715 l 243 293 q 290 165 243 213 q 410 118 338 118 q 531 167 483 118 q 579 293 579 215 l 579 715 l 718 715 l 718 143 l 768 0 l 619 0 l 592 75 q 510 13 565 39 q 381 -12 456 -12 m 226 858 l 226 979 l 617 979 l 617 858 l 226 858 z "},"Ŭ":{"ha":1006,"x_min":118,"x_max":888,"o":"m 501 -12 q 224 95 331 -12 q 118 375 118 203 l 118 972 l 261 972 l 261 374 q 327 192 261 261 q 501 122 393 122 q 678 191 613 122 q 744 374 744 260 l 744 972 l 888 972 l 888 375 q 781 95 888 203 q 501 -12 675 -12 m 301 1272 l 413 1272 q 437 1202 413 1231 q 508 1174 461 1174 q 579 1202 556 1174 q 603 1272 603 1231 l 714 1272 q 660 1121 714 1178 q 508 1064 607 1064 q 356 1121 411 1064 q 301 1272 301 1178 z "},"ŭ":{"ha":831,"x_min":104,"x_max":768,"o":"m 381 -12 q 181 66 258 -12 q 104 263 104 144 l 104 715 l 243 715 l 243 293 q 290 165 243 213 q 410 118 338 118 q 531 167 483 118 q 579 293 579 215 l 579 715 l 718 715 l 718 143 l 768 0 l 619 0 l 592 75 q 510 13 565 39 q 381 -12 456 -12 m 213 1015 l 324 1015 q 348 945 324 974 q 419 917 372 917 q 490 945 467 917 q 514 1015 514 974 l 625 1015 q 572 864 625 921 q 419 807 518 807 q 267 864 322 807 q 213 1015 213 921 z "},"Ů":{"ha":1006,"x_min":118,"x_max":888,"o":"m 501 -12 q 224 95 331 -12 q 118 375 118 203 l 118 972 l 261 972 l 261 374 q 327 192 261 261 q 501 122 393 122 q 678 191 613 122 q 744 374 744 260 l 744 972 l 888 972 l 888 375 q 781 95 888 203 q 501 -12 675 -12 m 394 1088 q 372 1110 394 1088 q 349 1199 349 1132 q 394 1310 349 1265 q 508 1354 440 1354 q 621 1310 575 1354 q 667 1199 667 1265 q 621 1088 667 1132 q 508 1044 575 1044 q 394 1088 440 1044 m 458 1247 q 449 1238 458 1247 q 439 1199 439 1228 q 458 1151 439 1169 q 508 1132 478 1132 q 558 1151 539 1132 q 576 1199 576 1169 q 558 1247 576 1228 q 508 1267 539 1267 q 458 1247 478 1267 z "},"ů":{"ha":831,"x_min":104,"x_max":768,"o":"m 381 -12 q 181 66 258 -12 q 104 263 104 144 l 104 715 l 243 715 l 243 293 q 290 165 243 213 q 410 118 338 118 q 531 167 483 118 q 579 293 579 215 l 579 715 l 718 715 l 718 143 l 768 0 l 619 0 l 592 75 q 510 13 565 39 q 381 -12 456 -12 m 306 831 q 283 853 306 831 q 260 942 260 875 q 306 1053 260 1008 q 419 1097 351 1097 q 532 1053 486 1097 q 578 942 578 1008 q 532 831 578 875 q 419 788 486 788 q 306 831 351 788 m 369 990 q 360 981 369 990 q 350 942 350 971 q 369 894 350 913 q 419 875 389 875 q 469 894 450 875 q 488 942 488 914 q 469 990 488 971 q 419 1010 450 1010 q 369 990 389 1010 z "},"Ű":{"ha":1006,"x_min":118,"x_max":888,"o":"m 501 -12 q 224 95 331 -12 q 118 375 118 203 l 118 972 l 261 972 l 261 374 q 327 192 261 261 q 501 122 393 122 q 678 191 613 122 q 744 374 744 260 l 744 972 l 888 972 l 888 375 q 781 95 888 203 q 501 -12 675 -12 m 340 1067 l 406 1276 l 561 1276 l 443 1067 l 340 1067 m 544 1067 l 608 1276 l 764 1276 l 647 1067 l 544 1067 z "},"ű":{"ha":831,"x_min":104,"x_max":768,"o":"m 381 -12 q 181 66 258 -12 q 104 263 104 144 l 104 715 l 243 715 l 243 293 q 290 165 243 213 q 410 118 338 118 q 531 167 483 118 q 579 293 579 215 l 579 715 l 718 715 l 718 143 l 768 0 l 619 0 l 592 75 q 510 13 565 39 q 381 -12 456 -12 m 251 810 l 317 1019 l 472 1019 l 354 810 l 251 810 m 456 810 l 519 1019 l 675 1019 l 558 810 l 456 810 z "},"Ų":{"ha":1006,"x_min":118,"x_max":888,"o":"m 518 -307 q 399 -264 446 -307 q 353 -151 353 -221 q 433 -8 353 -61 q 204 117 290 14 q 118 375 118 221 l 118 972 l 261 972 l 261 374 q 327 192 261 261 q 501 122 393 122 q 678 191 613 122 q 744 374 744 260 l 744 972 l 888 972 l 888 375 q 810 128 888 229 q 599 -3 732 26 q 513 -51 547 -18 q 479 -126 479 -83 q 500 -177 479 -158 q 547 -196 521 -196 q 590 -187 571 -196 l 622 -283 q 518 -307 575 -307 z "},"ų":{"ha":831,"x_min":104,"x_max":783,"o":"m 381 -12 q 181 66 258 -12 q 104 263 104 144 l 104 715 l 243 715 l 243 293 q 290 165 243 213 q 410 118 338 118 q 531 167 483 118 q 579 293 579 215 l 579 715 l 718 715 l 718 143 l 768 0 q 676 -48 713 -15 q 640 -126 640 -81 q 661 -177 640 -158 q 708 -196 682 -196 q 751 -187 732 -196 l 783 -283 q 679 -307 736 -307 q 560 -264 607 -307 q 514 -151 514 -221 q 618 6 514 -47 l 592 75 q 510 13 565 39 q 381 -12 456 -12 z "},"Ŵ":{"ha":1297,"x_min":35,"x_max":1263,"o":"m 281 0 l 35 972 l 183 972 l 369 218 l 567 972 l 728 972 l 928 218 l 1113 972 l 1263 972 l 1014 0 l 849 0 l 649 754 l 444 0 l 281 0 m 431 1067 l 568 1276 l 731 1276 l 868 1067 l 743 1067 l 649 1176 l 554 1067 l 431 1067 z "},"ŵ":{"ha":1086,"x_min":26,"x_max":1060,"o":"m 231 0 l 26 715 l 171 715 l 314 182 l 465 715 l 622 715 l 774 182 l 917 715 l 1060 715 l 856 0 l 696 0 l 544 531 l 392 0 l 231 0 m 332 810 l 469 1019 l 632 1019 l 769 810 l 644 810 l 550 919 l 456 810 l 332 810 z "},"Ŷ":{"ha":901,"x_min":35,"x_max":867,"o":"m 378 0 l 378 399 l 35 972 l 200 972 l 450 540 l 703 972 l 867 972 l 522 399 l 522 0 l 378 0 m 240 1067 l 378 1276 l 540 1276 l 678 1067 l 553 1067 l 458 1176 l 364 1067 l 240 1067 z "},"ŷ":{"ha":808,"x_min":26,"x_max":782,"o":"m 190 -318 l 329 6 l 26 715 l 182 715 l 407 167 l 622 715 l 782 715 l 346 -318 l 190 -318 m 196 810 l 333 1019 l 496 1019 l 633 810 l 508 810 l 414 919 l 319 810 l 196 810 z "},"Ÿ":{"ha":901,"x_min":35,"x_max":867,"o":"m 378 0 l 378 399 l 35 972 l 200 972 l 450 540 l 703 972 l 867 972 l 522 399 l 522 0 l 378 0 m 263 1119 q 250 1132 263 1119 q 236 1185 236 1146 q 263 1251 236 1224 q 329 1278 290 1278 q 394 1251 368 1278 q 421 1185 421 1224 q 394 1119 421 1146 q 329 1092 368 1092 q 263 1119 290 1092 m 519 1119 q 505 1132 519 1119 q 492 1185 492 1146 q 519 1251 492 1224 q 585 1278 546 1278 q 650 1251 624 1278 q 676 1185 676 1224 q 650 1119 676 1146 q 585 1092 624 1092 q 519 1119 546 1092 z "},"Ź":{"ha":857,"x_min":63,"x_max":794,"o":"m 63 0 l 63 132 l 606 839 l 75 839 l 75 972 l 786 972 l 786 839 l 244 132 l 794 132 l 794 0 l 63 0 m 349 1067 l 435 1276 l 590 1276 l 465 1067 l 349 1067 z "},"ź":{"ha":711,"x_min":69,"x_max":642,"o":"m 69 0 l 69 122 l 465 593 l 71 593 l 71 715 l 639 715 l 639 593 l 242 122 l 642 122 l 642 0 l 69 0 m 285 810 l 371 1019 l 526 1019 l 401 810 l 285 810 z "},"Ż":{"ha":857,"x_min":63,"x_max":794,"o":"m 63 0 l 63 132 l 606 839 l 75 839 l 75 972 l 786 972 l 786 839 l 244 132 l 794 132 l 794 0 l 63 0 m 356 1092 q 341 1106 356 1092 q 326 1164 326 1121 q 356 1236 326 1207 q 429 1265 385 1265 q 501 1236 472 1265 q 531 1164 531 1207 q 501 1092 531 1121 q 429 1063 472 1063 q 356 1092 386 1063 z "},"ż":{"ha":711,"x_min":69,"x_max":642,"o":"m 69 0 l 69 122 l 465 593 l 71 593 l 71 715 l 639 715 l 639 593 l 242 122 l 642 122 l 642 0 l 69 0 m 291 835 q 276 849 291 835 q 261 907 261 864 q 290 979 261 950 q 364 1008 319 1008 q 436 979 407 1008 q 465 907 465 950 q 436 835 465 864 q 364 806 407 806 q 291 835 321 806 z "},"Ž":{"ha":857,"x_min":63,"x_max":794,"o":"m 63 0 l 63 132 l 606 839 l 75 839 l 75 972 l 786 972 l 786 839 l 244 132 l 794 132 l 794 0 l 63 0 m 210 1278 l 335 1278 l 429 1168 l 524 1278 l 647 1278 l 510 1068 l 347 1068 l 210 1278 z "},"ž":{"ha":711,"x_min":69,"x_max":642,"o":"m 69 0 l 69 122 l 465 593 l 71 593 l 71 715 l 639 715 l 639 593 l 242 122 l 642 122 l 642 0 l 69 0 m 144 1019 l 269 1019 l 364 910 l 458 1019 l 582 1019 l 444 810 l 282 810 l 144 1019 z "},"Ǎ":{"ha":947,"x_min":35,"x_max":913,"o":"m 35 0 l 379 972 l 569 972 l 913 0 l 761 0 l 671 260 l 274 260 l 183 0 l 35 0 m 253 1278 l 378 1278 l 472 1168 l 567 1278 l 690 1278 l 553 1068 l 390 1068 l 253 1278 m 321 394 l 624 394 l 472 832 l 321 394 z "},"ǎ":{"ha":771,"x_min":64,"x_max":667,"o":"m 317 -14 q 139 49 208 -14 q 69 208 69 111 q 135 365 69 304 q 318 435 200 426 l 529 449 l 529 457 q 481 558 529 513 q 353 603 433 603 q 235 565 279 603 q 174 479 190 528 l 64 535 q 165 671 92 614 q 354 728 238 728 q 583 644 499 728 q 667 451 667 561 l 667 0 l 529 0 l 529 82 q 443 13 501 39 q 317 -14 385 -14 m 156 1019 l 281 1019 l 375 910 l 469 1019 l 593 1019 l 456 810 l 293 810 l 156 1019 m 208 211 q 243 136 208 164 q 331 108 278 108 q 477 161 422 108 q 532 288 532 214 l 532 332 l 328 318 q 241 288 274 315 q 208 211 208 260 z "},"Ǐ":{"ha":408,"x_min":-15,"x_max":422,"o":"m 132 0 l 132 972 l 276 972 l 276 0 l 132 0 m -15 1278 l 110 1278 l 204 1168 l 299 1278 l 422 1278 l 285 1068 l 122 1068 l -15 1278 z "},"ǐ":{"ha":346,"x_min":-42,"x_max":396,"o":"m 108 0 l 108 715 l 247 715 l 247 0 l 108 0 m -42 1019 l 83 1019 l 178 910 l 272 1019 l 396 1019 l 258 810 l 96 810 l -42 1019 z "},"Ǒ":{"ha":1104,"x_min":56,"x_max":1049,"o":"m 908 131 q 838 59 908 131 q 551 -12 768 -12 q 195 131 335 -12 q 56 486 56 274 q 195 842 56 699 q 551 985 335 985 q 909 842 769 985 q 1049 486 1049 699 q 908 131 1049 274 m 301 742 q 252 690 301 742 q 204 486 204 638 q 301 230 204 335 q 551 125 397 125 q 803 230 706 125 q 900 486 900 335 q 803 742 900 638 q 551 847 706 847 q 301 742 397 847 m 339 1278 l 464 1278 l 558 1168 l 653 1278 l 776 1278 l 639 1068 l 476 1068 l 339 1278 z "},"ǒ":{"ha":864,"x_min":56,"x_max":808,"o":"m 702 92 q 649 40 702 92 q 432 -12 596 -12 q 162 92 268 -12 q 56 357 56 196 q 162 623 56 518 q 432 728 268 728 q 702 623 596 728 q 808 357 808 518 q 702 92 808 197 m 263 531 q 230 497 263 531 q 196 357 196 463 q 264 183 196 251 q 432 115 332 115 q 601 183 533 115 q 668 357 668 251 q 601 531 668 463 q 432 599 533 599 q 263 531 331 599 m 213 1019 l 338 1019 l 432 910 l 526 1019 l 650 1019 l 513 810 l 350 810 l 213 1019 z "},"Ǧ":{"ha":1099,"x_min":56,"x_max":994,"o":"m 858 128 q 536 -12 746 -12 q 191 131 326 -12 q 56 486 56 274 q 192 842 56 700 q 542 985 328 985 q 799 917 690 985 q 960 738 908 850 l 828 669 q 718 797 790 750 q 542 843 646 843 q 297 739 390 843 q 204 486 204 635 q 297 233 204 338 q 542 129 390 129 q 758 199 667 129 q 857 389 849 268 l 550 389 l 550 522 l 994 522 l 994 0 l 858 0 l 858 128 m 325 1278 l 450 1278 l 544 1168 l 639 1278 l 763 1278 l 625 1068 l 463 1068 l 325 1278 z "},"ǧ":{"ha":883,"x_min":56,"x_max":779,"o":"m 421 -199 q 581 -142 521 -199 q 640 0 640 -86 l 640 96 q 542 21 607 50 q 403 -8 478 -8 q 155 94 254 -8 q 56 358 56 197 q 155 627 56 526 q 403 728 254 728 q 540 698 475 728 q 640 622 606 668 l 640 715 l 779 715 l 779 7 q 681 -233 779 -135 q 421 -331 583 -331 q 208 -268 293 -331 q 92 -121 124 -206 l 210 -60 q 286 -159 231 -119 q 421 -199 342 -199 m 196 358 q 257 188 196 257 q 419 119 318 119 q 581 188 519 119 q 643 358 643 257 q 581 529 643 460 q 419 599 519 599 q 257 530 318 599 q 196 358 196 461 m 199 1019 l 324 1019 l 418 910 l 513 1019 l 636 1019 l 499 810 l 336 810 l 199 1019 z "},"Ș":{"ha":882,"x_min":69,"x_max":813,"o":"m 449 122 q 611 165 558 122 q 664 269 664 207 q 522 406 664 371 l 369 443 q 121 710 121 503 q 215 909 121 833 q 454 985 310 985 q 685 919 596 985 q 803 763 774 853 l 676 696 q 605 804 663 756 q 454 853 547 853 q 318 815 369 853 q 267 713 267 776 q 401 582 267 614 l 561 544 q 749 444 686 514 q 813 272 813 374 q 716 69 813 150 q 446 -12 619 -12 q 200 57 297 -12 q 69 219 103 126 l 193 289 q 283 169 214 217 q 449 122 353 122 m 335 -328 l 378 -183 l 378 -67 l 503 -67 l 503 -189 l 458 -328 l 335 -328 z "},"ș":{"ha":714,"x_min":56,"x_max":654,"o":"m 361 -12 q 158 46 236 -12 q 56 181 81 104 l 172 239 q 237 151 186 190 q 364 111 288 111 q 473 136 433 111 q 513 201 513 161 q 422 286 513 268 l 283 313 q 145 381 196 331 q 94 515 94 431 q 171 668 94 608 q 367 728 247 728 q 556 675 488 728 q 647 551 624 622 l 532 496 q 478 574 522 540 q 365 607 435 607 q 266 582 303 607 q 229 518 229 557 q 314 438 229 454 l 460 408 q 604 336 554 390 q 654 206 654 282 q 574 48 654 108 q 361 -12 493 -12 m 249 -328 l 292 -183 l 292 -67 l 417 -67 l 417 -189 l 372 -328 l 249 -328 z "},"Ț":{"ha":857,"x_min":44,"x_max":813,"o":"m 356 0 l 356 839 l 44 839 l 44 972 l 813 972 l 813 839 l 501 839 l 501 0 l 356 0 m 322 -328 l 365 -183 l 365 -67 l 490 -67 l 490 -189 l 446 -328 l 322 -328 z "},"ț":{"ha":556,"x_min":38,"x_max":492,"o":"m 165 0 l 165 593 l 38 593 l 38 715 l 169 715 l 169 900 l 304 900 l 304 715 l 489 715 l 489 593 l 304 593 l 304 131 l 492 131 l 492 0 l 165 0 m 222 -328 l 265 -183 l 265 -67 l 390 -67 l 390 -189 l 346 -328 l 222 -328 z "},"ȷ":{"ha":372,"x_min":-14,"x_max":269,"o":"m -14 -322 l -14 -158 l 129 -61 l 131 715 l 269 715 l 269 -140 l -14 -322 z "},"ˆ":{"ha":513,"x_min":38,"x_max":475,"o":"m 38 810 l 175 1019 l 338 1019 l 475 810 l 350 810 l 256 919 l 161 810 l 38 810 z "},"ˇ":{"ha":513,"x_min":38,"x_max":475,"o":"m 475 1019 l 338 810 l 175 810 l 38 1019 l 163 1019 l 257 910 l 351 1019 l 475 1019 z "},"˘":{"ha":489,"x_min":38,"x_max":450,"o":"m 244 807 q 92 864 147 807 q 38 1015 38 921 l 149 1015 q 173 945 149 974 q 244 917 197 917 q 315 945 292 917 q 339 1015 339 974 l 450 1015 q 397 864 450 921 q 244 807 343 807 z "},"˙":{"ha":279,"x_min":38,"x_max":242,"o":"m 213 835 q 198 820 213 835 q 140 806 183 806 q 67 835 97 806 q 38 907 38 864 q 67 979 38 950 q 140 1008 96 1008 q 213 979 183 1008 q 242 907 242 950 q 213 835 242 864 z "},"˚":{"ha":393,"x_min":38,"x_max":356,"o":"m 197 788 q 83 831 129 788 q 38 942 38 875 q 83 1053 38 1008 q 197 1097 129 1097 q 310 1053 264 1097 q 356 942 356 1008 q 310 831 356 875 q 197 788 264 788 m 147 990 q 138 981 147 990 q 128 942 128 971 q 147 894 128 913 q 197 875 167 875 q 247 894 228 875 q 265 942 265 914 q 247 990 265 971 q 197 1010 228 1010 q 147 990 167 1010 z "},"˛":{"ha":344,"x_min":38,"x_max":307,"o":"m 203 -307 q 84 -264 131 -307 q 38 -151 38 -221 q 83 -36 38 -82 q 190 22 129 10 l 292 0 q 200 -48 236 -15 q 164 -126 164 -81 q 185 -177 164 -158 q 232 -196 206 -196 q 275 -187 256 -196 l 307 -283 q 203 -307 260 -307 z "},"˜":{"ha":539,"x_min":38,"x_max":501,"o":"m 129 824 l 38 872 l 63 919 q 114 989 86 965 q 186 1013 142 1013 q 272 985 222 1013 l 303 968 q 350 951 332 951 q 394 982 381 951 l 411 1015 l 501 969 l 474 914 q 356 833 433 833 q 269 860 319 833 l 231 882 q 193 894 208 894 q 151 865 167 894 l 129 824 z "},"˝":{"ha":499,"x_min":38,"x_max":461,"o":"m 242 810 l 306 1019 l 461 1019 l 344 810 l 242 810 m 38 810 l 103 1019 l 258 1019 l 140 810 l 38 810 z "},"̦":{"ha":0,"x_min":38,"x_max":206,"o":"m 38 -328 l 81 -183 l 81 -67 l 206 -67 l 206 -189 l 161 -328 l 38 -328 z "},"Ẁ":{"ha":1297,"x_min":35,"x_max":1263,"o":"m 281 0 l 35 972 l 183 972 l 369 218 l 567 972 l 728 972 l 928 218 l 1113 972 l 1263 972 l 1014 0 l 849 0 l 649 754 l 444 0 l 281 0 m 490 1276 l 646 1276 l 732 1067 l 615 1067 l 490 1276 z "},"ẁ":{"ha":1086,"x_min":26,"x_max":1060,"o":"m 231 0 l 26 715 l 171 715 l 314 182 l 465 715 l 622 715 l 774 182 l 917 715 l 1060 715 l 856 0 l 696 0 l 544 531 l 392 0 l 231 0 m 392 1019 l 547 1019 l 633 810 l 517 810 l 392 1019 z "},"Ẃ":{"ha":1297,"x_min":35,"x_max":1263,"o":"m 281 0 l 35 972 l 183 972 l 369 218 l 567 972 l 728 972 l 928 218 l 1113 972 l 1263 972 l 1014 0 l 849 0 l 649 754 l 444 0 l 281 0 m 567 1067 l 653 1276 l 808 1276 l 683 1067 l 567 1067 z "},"ẃ":{"ha":1086,"x_min":26,"x_max":1060,"o":"m 231 0 l 26 715 l 171 715 l 314 182 l 465 715 l 622 715 l 774 182 l 917 715 l 1060 715 l 856 0 l 696 0 l 544 531 l 392 0 l 231 0 m 468 810 l 554 1019 l 710 1019 l 585 810 l 468 810 z "},"Ẅ":{"ha":1297,"x_min":35,"x_max":1263,"o":"m 281 0 l 35 972 l 183 972 l 369 218 l 567 972 l 728 972 l 928 218 l 1113 972 l 1263 972 l 1014 0 l 849 0 l 649 754 l 444 0 l 281 0 m 453 1119 q 440 1132 453 1119 q 426 1185 426 1146 q 453 1251 426 1224 q 519 1278 481 1278 q 585 1251 558 1278 q 611 1185 611 1224 q 585 1119 611 1146 q 519 1092 558 1092 q 453 1119 481 1092 m 709 1119 q 695 1132 709 1119 q 682 1185 682 1146 q 709 1251 682 1224 q 775 1278 736 1278 q 840 1251 814 1278 q 867 1185 867 1224 q 840 1119 867 1146 q 775 1092 814 1092 q 709 1119 736 1092 z "},"ẅ":{"ha":1086,"x_min":26,"x_max":1060,"o":"m 231 0 l 26 715 l 171 715 l 314 182 l 465 715 l 622 715 l 774 182 l 917 715 l 1060 715 l 856 0 l 696 0 l 544 531 l 392 0 l 231 0 m 355 862 q 341 875 355 862 q 328 928 328 889 q 355 994 328 967 q 421 1021 382 1021 q 486 994 460 1021 q 513 928 513 967 q 486 862 513 889 q 421 835 460 835 q 355 862 382 835 m 610 862 q 597 875 610 862 q 583 928 583 889 q 610 994 583 967 q 676 1021 638 1021 q 742 994 715 1021 q 768 928 768 967 q 742 862 768 889 q 676 835 715 835 q 610 862 638 835 z "},"ẞ":{"ha":1036,"x_min":118,"x_max":994,"o":"m 642 -14 q 360 83 472 -14 l 436 197 q 642 121 522 121 q 788 160 731 121 q 844 267 844 199 q 701 408 844 379 l 443 463 l 443 567 l 703 840 l 467 840 q 316 783 371 840 q 261 633 261 726 l 261 0 l 118 0 l 118 633 q 216 883 118 793 q 467 972 314 972 l 876 972 l 876 829 l 619 564 l 750 535 q 934 438 874 508 q 994 267 994 367 q 899 67 994 147 q 642 -14 804 -14 z "},"Ẽ":{"ha":847,"x_min":132,"x_max":771,"o":"m 132 0 l 132 972 l 771 972 l 771 840 l 275 840 l 275 567 l 728 567 l 728 436 l 275 436 l 275 132 l 771 132 l 771 0 l 132 0 m 222 1129 l 247 1176 q 299 1246 271 1222 q 371 1269 326 1269 q 457 1242 407 1269 l 488 1225 q 535 1208 517 1208 q 579 1239 565 1208 l 596 1272 l 686 1226 l 658 1171 q 540 1090 618 1090 q 454 1117 504 1090 l 415 1139 q 378 1151 393 1151 q 336 1122 350 1151 l 314 1081 l 222 1129 z "},"ẽ":{"ha":814,"x_min":56,"x_max":758,"o":"m 418 -12 q 156 93 256 -12 q 56 357 56 199 q 156 622 56 517 q 417 728 256 728 q 664 624 569 728 q 758 374 758 521 l 758 308 l 196 308 q 269 162 208 211 q 418 113 329 113 q 553 152 497 113 q 628 244 610 192 l 735 188 q 625 50 706 113 q 418 -12 544 -12 m 175 872 l 200 919 q 251 989 224 965 q 324 1013 279 1013 q 410 985 360 1013 l 440 968 q 488 951 469 951 q 532 982 518 951 l 549 1015 l 639 969 l 611 914 q 493 833 571 833 q 407 860 457 833 l 368 882 q 331 894 346 894 q 289 865 303 894 l 267 824 l 175 872 m 200 425 l 614 425 q 558 551 613 496 q 415 606 503 606 q 275 558 333 606 q 200 425 217 511 z "},"Ỳ":{"ha":901,"x_min":35,"x_max":867,"o":"m 378 0 l 378 399 l 35 972 l 200 972 l 450 540 l 703 972 l 867 972 l 522 399 l 522 0 l 378 0 m 300 1276 l 456 1276 l 542 1067 l 425 1067 l 300 1276 z "},"ỳ":{"ha":808,"x_min":26,"x_max":782,"o":"m 190 -318 l 329 6 l 26 715 l 182 715 l 407 167 l 622 715 l 782 715 l 346 -318 l 190 -318 m 256 1019 l 411 1019 l 497 810 l 381 810 l 256 1019 z "}," ":{"ha":676,"x_min":0,"x_max":0,"o":""}," ":{"ha":1354,"x_min":0,"x_max":0,"o":""}," ":{"ha":676,"x_min":0,"x_max":0,"o":""}," ":{"ha":1354,"x_min":0,"x_max":0,"o":""}," ":{"ha":451,"x_min":0,"x_max":0,"o":""}," ":{"ha":338,"x_min":0,"x_max":0,"o":""}," ":{"ha":225,"x_min":0,"x_max":0,"o":""}," ":{"ha":225,"x_min":0,"x_max":0,"o":""}," ":{"ha":168,"x_min":0,"x_max":0,"o":""}," ":{"ha":271,"x_min":0,"x_max":0,"o":""}," ":{"ha":75,"x_min":0,"x_max":0,"o":""},"‐":{"ha":633,"x_min":104,"x_max":529,"o":"m 104 343 l 104 471 l 529 471 l 529 343 l 104 343 z "},"‑":{"ha":633,"x_min":104,"x_max":529,"o":"m 104 343 l 104 471 l 529 471 l 529 343 l 104 343 z "},"‒":{"ha":633,"x_min":104,"x_max":529,"o":"m 104 343 l 104 471 l 529 471 l 529 343 l 104 343 z "},"–":{"ha":850,"x_min":76,"x_max":774,"o":"m 76 343 l 76 471 l 774 471 l 774 343 l 76 343 z "},"—":{"ha":1517,"x_min":76,"x_max":1440,"o":"m 76 343 l 76 471 l 1440 471 l 1440 343 l 76 343 z "},"‘":{"ha":315,"x_min":56,"x_max":258,"o":"m 258 972 l 200 785 l 200 632 l 56 632 l 56 790 l 117 972 l 258 972 z "},"’":{"ha":315,"x_min":56,"x_max":258,"o":"m 56 632 l 114 819 l 114 972 l 258 972 l 258 814 l 197 632 l 56 632 z "},"‚":{"ha":307,"x_min":49,"x_max":251,"o":"m 49 -172 l 107 15 l 107 168 l 251 168 l 251 10 l 190 -172 l 49 -172 z "},"“":{"ha":544,"x_min":56,"x_max":489,"o":"m 258 972 l 200 785 l 200 632 l 56 632 l 56 790 l 117 972 l 258 972 m 286 632 l 286 790 l 347 972 l 489 972 l 431 785 l 431 632 l 286 632 z "},"”":{"ha":544,"x_min":56,"x_max":489,"o":"m 286 632 l 344 819 l 344 972 l 489 972 l 489 814 l 428 632 l 286 632 m 56 632 l 114 819 l 114 972 l 258 972 l 258 814 l 197 632 l 56 632 z "},"„":{"ha":538,"x_min":49,"x_max":482,"o":"m 279 -172 l 338 15 l 338 168 l 482 168 l 482 10 l 421 -172 l 279 -172 m 49 -172 l 107 15 l 107 168 l 251 168 l 251 10 l 190 -172 l 49 -172 z "},"†":{"ha":575,"x_min":76,"x_max":499,"o":"m 229 238 l 229 669 l 76 669 l 76 778 l 229 778 l 229 972 l 346 972 l 346 778 l 499 778 l 499 669 l 346 669 l 346 238 l 229 238 z "},"‡":{"ha":575,"x_min":76,"x_max":499,"o":"m 229 669 l 76 669 l 76 778 l 229 778 l 229 972 l 346 972 l 346 778 l 499 778 l 499 669 l 346 669 l 346 304 l 499 304 l 499 196 l 346 196 l 346 1 l 229 1 l 229 196 l 76 196 l 76 304 l 229 304 l 229 669 z "},"•":{"ha":518,"x_min":63,"x_max":456,"o":"m 399 266 q 370 237 399 266 q 260 208 342 208 q 120 266 178 208 q 63 406 63 324 q 120 544 63 488 q 260 601 178 601 q 399 544 342 601 q 456 406 456 486 q 399 266 456 324 z "},"…":{"ha":1188,"x_min":76,"x_max":1113,"o":"m 250 17 q 235 2 250 17 q 178 -12 221 -12 q 106 17 135 -12 q 76 89 76 46 q 106 161 76 132 q 178 190 135 190 q 250 161 221 190 q 279 89 279 132 q 250 17 279 46 m 522 17 q 508 31 522 17 q 493 89 493 46 q 522 161 493 132 q 594 190 551 190 q 667 161 638 190 q 696 89 696 132 q 667 17 696 46 q 594 -12 638 -12 q 522 17 551 -12 m 939 17 q 924 31 939 17 q 910 89 910 46 q 939 161 910 132 q 1011 190 968 190 q 1083 161 1054 190 q 1113 89 1113 132 q 1083 17 1113 46 q 1011 -12 1054 -12 q 939 17 968 -12 z "}," ":{"ha":271,"x_min":0,"x_max":0,"o":""},"‰":{"ha":1769,"x_min":56,"x_max":1714,"o":"m 257 0 l 813 972 l 957 972 l 403 0 l 257 0 m 126 563 q 91 598 126 563 q 56 740 56 633 q 126 918 56 847 q 303 989 197 989 q 478 918 408 989 q 549 740 549 847 q 478 563 549 633 q 303 492 408 492 q 126 563 197 492 m 214 837 q 195 819 214 837 q 176 740 176 801 q 214 644 176 679 q 303 608 251 608 q 391 644 354 608 q 428 740 428 679 q 391 837 428 801 q 303 872 354 872 q 214 837 251 872 m 735 58 q 700 94 735 58 q 665 236 665 129 q 735 414 665 343 q 911 485 806 485 q 1088 414 1017 485 q 1158 236 1158 343 q 1088 58 1158 129 q 911 -12 1017 -12 q 735 58 806 -12 m 823 333 q 805 315 823 333 q 786 236 786 297 q 823 140 786 175 q 911 104 860 104 q 999 140 963 104 q 1036 236 1036 175 q 999 333 1036 297 q 911 368 963 368 q 823 333 860 368 m 1291 58 q 1256 94 1291 58 q 1221 236 1221 129 q 1291 414 1221 343 q 1467 485 1361 485 q 1643 414 1572 485 q 1714 236 1714 343 q 1643 58 1714 129 q 1467 -12 1572 -12 q 1291 58 1361 -12 m 1378 333 q 1360 315 1378 333 q 1342 236 1342 297 q 1378 140 1342 175 q 1467 104 1415 104 q 1555 140 1518 104 q 1592 236 1592 175 q 1555 333 1592 297 q 1467 368 1518 368 q 1378 333 1415 368 z "},"‹":{"ha":514,"x_min":76,"x_max":438,"o":"m 294 92 l 149 331 l 76 331 l 76 449 l 144 449 l 294 694 l 438 694 l 257 393 l 438 92 l 294 92 z "},"›":{"ha":514,"x_min":76,"x_max":438,"o":"m 219 92 l 76 92 l 257 393 l 76 694 l 219 694 l 369 449 l 438 449 l 438 331 l 365 331 l 219 92 z "},"⁄":{"ha":738,"x_min":-24,"x_max":761,"o":"m -24 -139 l 621 1111 l 761 1111 l 119 -139 l -24 -139 z "}," ":{"ha":338,"x_min":0,"x_max":0,"o":""},"€":{"ha":1107,"x_min":56,"x_max":1050,"o":"m 56 528 l 56 644 l 143 644 q 315 891 190 797 q 610 985 439 985 q 875 911 761 985 q 1046 711 989 838 l 917 642 q 797 788 878 733 q 610 843 717 843 q 422 790 501 843 q 301 644 342 736 l 657 644 l 629 528 l 271 528 q 269 486 269 514 q 272 432 269 468 l 608 432 l 581 315 l 307 315 q 427 179 349 229 q 610 129 506 129 q 803 188 721 129 q 922 343 885 246 l 1050 275 q 881 65 997 143 q 610 -12 765 -12 q 319 78 443 -12 q 147 315 196 168 l 56 315 l 56 432 l 124 432 q 121 486 121 468 q 122 528 121 514 l 56 528 z "},"™":{"ha":1054,"x_min":51,"x_max":1003,"o":"m 192 518 l 192 882 l 51 882 l 51 972 l 426 972 l 426 882 l 288 882 l 288 518 l 192 518 m 503 518 l 503 972 l 625 972 l 753 632 l 881 972 l 1003 972 l 1003 518 l 911 518 l 911 813 l 801 518 l 703 518 l 594 813 l 594 518 l 503 518 z "},"←":{"ha":1190,"x_min":76,"x_max":1114,"o":"m 1114 564 l 1114 431 l 326 431 l 678 79 l 494 79 l 76 497 l 494 915 l 678 915 l 326 564 l 1114 564 z "},"↑":{"ha":989,"x_min":76,"x_max":913,"o":"m 428 0 l 428 788 l 76 436 l 76 619 l 494 1038 l 913 619 l 913 436 l 561 788 l 561 0 l 428 0 z "},"→":{"ha":1190,"x_min":76,"x_max":1114,"o":"m 76 564 l 864 564 l 513 915 l 696 915 l 1114 497 l 696 79 l 513 79 l 864 431 l 76 431 l 76 564 z "},"↓":{"ha":989,"x_min":76,"x_max":913,"o":"m 428 972 l 561 972 l 561 185 l 913 536 l 913 353 l 494 -65 l 76 353 l 76 536 l 428 185 l 428 972 z "},"↖":{"ha":932,"x_min":75,"x_max":856,"o":"m 856 286 l 761 192 l 204 749 l 204 251 l 75 381 l 75 972 l 667 972 l 796 842 l 299 842 l 856 286 z "},"↗":{"ha":932,"x_min":76,"x_max":857,"o":"m 76 286 l 633 842 l 136 842 l 265 972 l 857 972 l 857 381 l 728 251 l 728 749 l 171 192 l 76 286 z "},"↘":{"ha":932,"x_min":76,"x_max":857,"o":"m 76 686 l 171 781 l 728 224 l 728 721 l 857 592 l 857 0 l 265 0 l 136 131 l 633 131 l 76 686 z "},"↙":{"ha":932,"x_min":75,"x_max":856,"o":"m 856 676 l 299 119 l 796 119 l 667 -10 l 75 -10 l 75 581 l 204 711 l 204 214 l 761 771 l 856 676 z "},"−":{"ha":675,"x_min":7,"x_max":668,"o":"m 7 378 l 7 492 l 668 492 l 668 378 l 7 378 z "},"≠":{"ha":675,"x_min":7,"x_max":668,"o":"m 100 132 l 163 239 l 7 239 l 7 354 l 231 354 l 324 510 l 7 510 l 7 625 l 392 625 l 454 732 l 575 732 l 513 625 l 668 625 l 668 510 l 444 510 l 353 354 l 668 354 l 668 239 l 285 239 l 222 132 l 100 132 z "},"≤":{"ha":710,"x_min":61,"x_max":646,"o":"m 646 188 l 61 422 l 61 586 l 646 822 l 646 694 l 168 504 l 646 315 l 646 188 m 61 0 l 61 117 l 646 117 l 646 0 l 61 0 z "},"≥":{"ha":710,"x_min":63,"x_max":647,"o":"m 63 188 l 63 315 l 540 504 l 63 694 l 63 822 l 647 586 l 647 422 l 63 188 m 63 0 l 63 117 l 647 117 l 647 0 l 63 0 z "},"◼":{"ha":715,"x_min":0,"x_max":715,"o":"m 0 715 l 715 715 l 715 0 l 0 0 l 0 715 z "}}}
